<svg width="48" height="48" viewBox="0 0 48 48" fill="none" xmlns="http://www.w3.org/2000/svg">
    <g filter="url(#filter0_d)">
        <path fill-rule="evenodd" clip-rule="evenodd" d="M11.944 11.9441C12.4847 11.4034 13.3614 11.4034 13.9021 11.9441L24 22.042L34.0978 11.9441C34.6386 11.4034 35.5153 11.4034 36.056 11.9441C36.5967 12.4848 36.5967 13.3615 36.056 13.9023L25.9581 24.0001L36.056 34.098C36.5967 34.6387 36.5967 35.5154 36.056 36.0561C35.5153 36.5968 34.6386 36.5968 34.0978 36.0561L24 25.9583L13.9021 36.0561C13.3614 36.5968 12.4847 36.5968 11.944 36.0561C11.4033 35.5154 11.4033 34.6387 11.944 34.098L22.0418 24.0001L11.944 13.9023C11.4033 13.3615 11.4033 12.4848 11.944 11.9441Z" fill="white"/>
    </g>
    <defs>
        <filter id="filter0_d" x="7.53845" y="7.53857" width="32.9231" height="32.9231" filterUnits="userSpaceOnUse" color-interpolation-filters="sRGB">
            <feFlood flood-opacity="0" result="BackgroundImageFix"/>
            <feColorMatrix in="SourceAlpha" type="matrix" values="0 0 0 0 0 0 0 0 0 0 0 0 0 0 0 0 0 0 127 0"/>
            <feOffset/>
            <feGaussianBlur stdDeviation="2"/>
            <feColorMatrix type="matrix" values="0 0 0 0 0 0 0 0 0 0 0 0 0 0 0 0 0 0 0.35 0"/>
            <feBlend mode="normal" in2="BackgroundImageFix" result="effect1_dropShadow"/>
            <feBlend mode="normal" in="SourceGraphic" in2="effect1_dropShadow" result="shape"/>
        </filter>
    </defs>
</svg>
