<?xml version="1.0" encoding="UTF-8"?>
<svg width="125px" height="111px" viewBox="0 0 125 111" version="1.1" xmlns="http://www.w3.org/2000/svg" xmlns:xlink="http://www.w3.org/1999/xlink">
    <!-- Generator: Sketch 50.2 (55047) - http://www.bohemiancoding.com/sketch -->
    <title>bd-upgrade</title>
    <desc>Created with Sketch.</desc>
    <defs>
        <polygon id="path-1" points="0 0 114 0 114 90 -1.42108547e-14 90"></polygon>
        <circle id="path-3" cx="149" cy="135" r="100"></circle>
        <filter x="-7.0%" y="-7.0%" width="116.0%" height="116.0%" filterUnits="objectBoundingBox" id="filter-4">
            <feOffset dx="2" dy="2" in="SourceAlpha" result="shadowOffsetOuter1"></feOffset>
            <feGaussianBlur stdDeviation="5" in="shadowOffsetOuter1" result="shadowBlurOuter1"></feGaussianBlur>
            <feColorMatrix values="0 0 0 0 0   0 0 0 0 0   0 0 0 0 0  0 0 0 0.07 0" type="matrix" in="shadowBlurOuter1"></feColorMatrix>
        </filter>
        <circle id="path-5" cx="149" cy="117" r="100"></circle>
        <filter x="-7.0%" y="-7.0%" width="116.0%" height="116.0%" filterUnits="objectBoundingBox" id="filter-6">
            <feOffset dx="2" dy="2" in="SourceAlpha" result="shadowOffsetOuter1"></feOffset>
            <feGaussianBlur stdDeviation="5" in="shadowOffsetOuter1" result="shadowBlurOuter1"></feGaussianBlur>
            <feColorMatrix values="0 0 0 0 0   0 0 0 0 0   0 0 0 0 0  0 0 0 0.07 0" type="matrix" in="shadowBlurOuter1"></feColorMatrix>
        </filter>
        <circle id="path-7" cx="132" cy="100" r="100"></circle>
        <filter x="-7.0%" y="-7.0%" width="116.0%" height="116.0%" filterUnits="objectBoundingBox" id="filter-8">
            <feOffset dx="2" dy="2" in="SourceAlpha" result="shadowOffsetOuter1"></feOffset>
            <feGaussianBlur stdDeviation="5" in="shadowOffsetOuter1" result="shadowBlurOuter1"></feGaussianBlur>
            <feColorMatrix values="0 0 0 0 0   0 0 0 0 0   0 0 0 0 0  0 0 0 0.07 0" type="matrix" in="shadowBlurOuter1"></feColorMatrix>
        </filter>
        <circle id="path-9" cx="107" cy="95" r="95"></circle>
        <filter x="-7.4%" y="-7.4%" width="116.8%" height="116.8%" filterUnits="objectBoundingBox" id="filter-10">
            <feOffset dx="2" dy="2" in="SourceAlpha" result="shadowOffsetOuter1"></feOffset>
            <feGaussianBlur stdDeviation="5" in="shadowOffsetOuter1" result="shadowBlurOuter1"></feGaussianBlur>
            <feColorMatrix values="0 0 0 0 0   0 0 0 0 0   0 0 0 0 0  0 0 0 0.07 0" type="matrix" in="shadowBlurOuter1"></feColorMatrix>
        </filter>
        <circle id="path-11" cx="94" cy="97" r="85"></circle>
        <filter x="-8.2%" y="-8.2%" width="118.8%" height="118.8%" filterUnits="objectBoundingBox" id="filter-12">
            <feOffset dx="2" dy="2" in="SourceAlpha" result="shadowOffsetOuter1"></feOffset>
            <feGaussianBlur stdDeviation="5" in="shadowOffsetOuter1" result="shadowBlurOuter1"></feGaussianBlur>
            <feColorMatrix values="0 0 0 0 0   0 0 0 0 0   0 0 0 0 0  0 0 0 0.07 0" type="matrix" in="shadowBlurOuter1"></feColorMatrix>
        </filter>
        <circle id="path-13" cx="75" cy="105" r="75"></circle>
        <filter x="-9.3%" y="-9.3%" width="121.3%" height="121.3%" filterUnits="objectBoundingBox" id="filter-14">
            <feOffset dx="2" dy="2" in="SourceAlpha" result="shadowOffsetOuter1"></feOffset>
            <feGaussianBlur stdDeviation="5" in="shadowOffsetOuter1" result="shadowBlurOuter1"></feGaussianBlur>
            <feColorMatrix values="0 0 0 0 0   0 0 0 0 0   0 0 0 0 0  0 0 0 0.07 0" type="matrix" in="shadowBlurOuter1"></feColorMatrix>
        </filter>
    </defs>
    <g id="Page-1" stroke="none" stroke-width="1" fill="none" fill-rule="evenodd">
        <g id="sildik-for" transform="translate(-918.000000, -82.000000)">
            <g id="bd-upgrade" transform="translate(918.000000, 82.000000)">
                <g id="Group-3" transform="translate(6.000000, 0.000000)">
                    <mask id="mask-2" fill="white">
                        <use xlink:href="#path-1"></use>
                    </mask>
                    <use id="Rectangle-2" fill="#C9112A" xlink:href="#path-1"></use>
                    <g id="Group-2" mask="url(#mask-2)">
                        <g transform="translate(-99.000000, -158.000000)">
                            <g id="Oval-Copy-5">
                                <use fill="black" fill-opacity="1" filter="url(#filter-4)" xlink:href="#path-3"></use>
                                <use fill="#DC1832" fill-rule="evenodd" xlink:href="#path-3"></use>
                            </g>
                            <g id="Oval-Copy-4">
                                <use fill="black" fill-opacity="1" filter="url(#filter-6)" xlink:href="#path-5"></use>
                                <use fill="#EA2927" fill-rule="evenodd" xlink:href="#path-5"></use>
                            </g>
                            <g id="Oval-Copy-3">
                                <use fill="black" fill-opacity="1" filter="url(#filter-8)" xlink:href="#path-7"></use>
                                <use fill="#EF4D23" fill-rule="evenodd" xlink:href="#path-7"></use>
                            </g>
                            <g id="Oval-Copy-2">
                                <use fill="black" fill-opacity="1" filter="url(#filter-10)" xlink:href="#path-9"></use>
                                <use fill="#F26F1B" fill-rule="evenodd" xlink:href="#path-9"></use>
                            </g>
                            <g id="Oval-Copy">
                                <use fill="black" fill-opacity="1" filter="url(#filter-12)" xlink:href="#path-11"></use>
                                <use fill="#F58B19" fill-rule="evenodd" xlink:href="#path-11"></use>
                            </g>
                            <g id="Oval">
                                <use fill="black" fill-opacity="1" filter="url(#filter-14)" xlink:href="#path-13"></use>
                                <use fill="#F9A713" fill-rule="evenodd" xlink:href="#path-13"></use>
                            </g>
                        </g>
                    </g>
                </g>
                <path d="M33.904,62.272 L30.744,62.625 L30.744,58.44 L22.16,59.402 L22.16,63.587 L19,63.94 L19,56.624 L20.371,56.471 C21.474,53.433 22.13,49.95 22.13,45.579 L22.13,37.333 L32.145,36.212 L32.145,55.152 L33.904,54.956 L33.904,62.272 Z M28.807,55.526 L28.807,39.686 L25.319,40.076 L25.319,46.09 C25.319,50.058 24.753,53.221 23.769,56.09 L28.807,55.526 Z M39.417,57.469 L44.187,43.419 L44.187,56.935 L47.525,56.562 L47.525,34.49 L44.545,34.823 L39.805,48.87 L39.805,35.354 L36.467,35.728 L36.467,57.8 L39.417,57.47 L39.417,57.469 Z M61.207,48.892 C61.207,46.846 60.879,45.859 60.223,45.096 C59.8384782,44.6355169 59.3476986,44.2754975 58.793,44.047 C59.3428043,43.6603106 59.8172726,43.176353 60.193,42.619 C60.849,41.678 61.117,40.718 61.117,38.982 C61.117,36.781 60.819,35.482 59.747,34.423 C58.792,33.476 57.481,33.127 55.752,33.321 C54.082,33.507 52.802,34.147 51.907,35.177 C50.923,36.372 50.387,37.982 50.357,40.001 L53.666,39.631 C53.696,38.697 53.874,37.871 54.292,37.266 C54.619,36.826 55.096,36.525 55.752,36.452 C56.378,36.382 56.855,36.545 57.182,36.912 C57.69,37.444 57.779,38.209 57.779,39.48 C57.779,41.03 57.57,41.735 57.093,42.315 C56.766,42.724 56.289,42.932 55.753,42.993 L54.083,43.179 L54.083,46.124 L55.753,45.938 C56.318,45.874 56.766,45.979 57.153,46.338 C57.63,46.812 57.868,47.53 57.868,49.142 C57.868,50.412 57.719,51.297 57.213,51.974 C56.885,52.414 56.408,52.684 55.753,52.758 C55.096,52.831 54.619,52.636 54.262,52.273 C53.844,51.763 53.666,51.007 53.666,50.046 L50.327,50.42 C50.387,52.46 50.864,53.987 51.907,54.955 C52.801,55.785 54.053,56.079 55.752,55.889 C57.541,55.689 58.882,55.011 59.866,53.785 C60.879,52.525 61.206,51.124 61.206,48.892 L61.207,48.892 Z M76.408,53.328 L72.921,53.718 L72.057,49.444 L67.138,49.994 L66.304,54.459 L62.787,54.853 L68.003,32.197 L71.252,31.833 L76.408,53.328 Z M71.431,46.383 L69.612,37.349 L67.794,46.79 L71.431,46.383 Z M81.327,52.777 L86.096,38.727 L86.096,52.243 L89.434,51.869 L89.434,29.797 L86.454,30.131 L81.714,44.178 L81.714,30.662 L78.376,31.036 L78.376,53.108 L81.326,52.778 L81.327,52.777 Z M103.831,50.257 L103.831,28.187 L100.493,28.56 L100.493,37.86 L96.349,38.324 L96.349,29.024 L93.011,29.398 L93.011,51.47 L96.349,51.096 L96.349,41.456 L100.493,40.991 L100.493,50.632 L103.831,50.259 L103.831,50.257 Z M82.23,27 L80.238,27 C80.728,28.763 82.235,29.208 83.89,29.023 C85.28,28.868 86.565,28.291 87.232,27 L84.769,27 C84.4946589,27.4363204 84.0154014,27.7011028 83.5,27.7011028 C82.9845986,27.7011028 82.5053411,27.4363204 82.231,27 L82.23,27 Z" id="Shape-Copy" fill="#FFFFFF" fill-rule="nonzero"></path>
                <path d="M27.0141602,24 L25.7319336,24 L25.7319336,15.7480469 L22.1835938,15.7480469 L22.1835938,24 L20.8950195,24 L20.8950195,14.7578125 L27.0141602,14.7578125 L27.0141602,24 Z M30.0991211,20.3564453 L30.0991211,24 L28.8105469,24 L28.8105469,14.7578125 L31.8447266,14.7578125 C32.7080121,14.7578125 33.3850887,15.01489 33.8759766,15.5290527 C34.3668644,16.0432155 34.6123047,16.7192341 34.6123047,17.5571289 C34.6123047,18.3992555 34.3668644,19.0763321 33.8759766,19.5883789 C33.3850887,20.1004257 32.7080121,20.3564453 31.8447266,20.3564453 L30.0991211,20.3564453 Z M30.0991211,19.3662109 L31.8447266,19.3662109 C32.3313826,19.3662109 32.699543,19.1958839 32.9492188,18.8552246 C33.1988945,18.5145654 33.3237305,18.0861028 33.3237305,17.5698242 C33.3237305,17.045082 33.1999524,16.6102719 32.9523926,16.2653809 C32.7048327,15.9204898 32.3356144,15.7480469 31.8447266,15.7480469 L30.0991211,15.7480469 L30.0991211,19.3662109 Z M41.8803711,20.6547852 C41.8803711,21.7508193 41.5968453,22.6045705 41.0297852,23.2160645 C40.462725,23.8275584 39.7031298,24.1333008 38.7509766,24.1333008 C37.8115187,24.1333008 37.0646187,23.8275584 36.5102539,23.2160645 C35.9558892,22.6045705 35.6787109,21.7508193 35.6787109,20.6547852 L35.6787109,18.1157227 C35.6787109,17.0239203 35.9569471,16.1691112 36.5134277,15.5512695 C37.0699084,14.9334279 37.8157505,14.6245117 38.7509766,14.6245117 C39.698898,14.6245117 40.4574353,14.9334279 41.0266113,15.5512695 C41.5957874,16.1691112 41.8803711,17.0239203 41.8803711,18.1157227 L41.8803711,20.6547852 Z M40.5981445,18.0966797 C40.5981445,17.2926392 40.4373388,16.6822124 40.1157227,16.2653809 C39.7941065,15.8485493 39.3391956,15.6401367 38.7509766,15.6401367 C38.1712211,15.6401367 37.7268896,15.8485493 37.4179688,16.2653809 C37.1090479,16.6822124 36.9545898,17.2926392 36.9545898,18.0966797 L36.9545898,20.6547852 C36.9545898,21.4672892 37.1101059,22.0830057 37.4211426,22.5019531 C37.7321793,22.9209005 38.1754529,23.1303711 38.7509766,23.1303711 C39.3434274,23.1303711 39.7993962,22.9219585 40.1188965,22.505127 C40.4383968,22.0882954 40.5981445,21.471521 40.5981445,20.6547852 L40.5981445,18.0966797 Z M50.4052734,26.253418 L49.2373047,26.253418 L49.2373047,24 L44.0131836,24 L44.0131836,26.2597656 L42.8579102,26.2597656 L42.7246094,23.0224609 L43.3466797,23.0224609 C43.6175144,22.7220037 43.8661284,22.2004432 44.0925293,21.4577637 C44.3189302,20.7150842 44.4490558,19.6772528 44.4829102,18.3442383 L44.6796875,14.7578125 L49.5483398,14.7578125 L49.5483398,23.0224609 L50.5258789,23.0224609 L50.4052734,26.253418 Z M45.777832,18.3442383 C45.7397459,19.4106499 45.6223154,20.3352825 45.4255371,21.1181641 C45.2287588,21.9010456 44.9780289,22.5358049 44.6733398,23.0224609 L48.2661133,23.0224609 L48.2661133,15.7480469 L45.9111328,15.7480469 L45.777832,18.3442383 Z M51.706543,24 L51.706543,14.7578125 L54.2836914,14.7578125 C55.1554406,14.7578125 55.8356909,14.9651672 56.3244629,15.3798828 C56.8132349,15.7945984 57.0576172,16.4166625 57.0576172,17.2460938 C57.0576172,17.6862001 56.9465343,18.0744612 56.7243652,18.4108887 C56.5021962,18.7473161 56.1943379,18.9938143 55.8007812,19.1503906 C56.3001327,19.2604172 56.6841621,19.5217265 56.9528809,19.9343262 C57.2215997,20.3469259 57.355957,20.8304009 57.355957,21.3847656 C57.355957,22.2353558 57.1158064,22.8838682 56.635498,23.3303223 C56.1551897,23.7767763 55.4918662,24 54.6455078,24 L51.706543,24 Z M52.9951172,19.6899414 L52.9951172,23.0224609 L54.6455078,23.0224609 C55.1025413,23.0224609 55.4548327,22.881756 55.7023926,22.6003418 C55.9499524,22.3189276 56.0737305,21.9158555 56.0737305,21.3911133 C56.0737305,20.8706029 55.9679373,20.4569514 55.7563477,20.1501465 C55.5447581,19.8433416 55.218915,19.6899414 54.7788086,19.6899414 L52.9951172,19.6899414 Z M52.9951172,18.7631836 L54.4106445,18.7631836 C54.8338237,18.7631836 55.1660144,18.6351738 55.4072266,18.3791504 C55.6484387,18.123127 55.769043,17.7539087 55.769043,17.2714844 C55.769043,16.7636693 55.643149,16.3828138 55.3913574,16.1289062 C55.1395658,15.8749987 54.7703475,15.7480469 54.2836914,15.7480469 L52.9951172,15.7480469 L52.9951172,18.7631836 Z M63.6274414,14.7578125 L64.9160156,14.7578125 L64.9160156,24 L63.6274414,24 L63.6274414,17.2587891 L63.5893555,17.2460938 L60.0917969,24 L58.8032227,24 L58.8032227,14.7578125 L60.0917969,14.7578125 L60.0917969,21.4926758 L60.1298828,21.5053711 L63.6274414,14.7578125 Z M72.8188477,24 L71.5366211,24 L71.5366211,19.9248047 L67.9946289,19.9248047 L67.9946289,24 L66.7060547,24 L66.7060547,14.7578125 L67.9946289,14.7578125 L67.9946289,18.940918 L71.5366211,18.940918 L71.5366211,14.7578125 L72.8188477,14.7578125 L72.8188477,24 Z M77.1035156,19.3217773 L77.3193359,19.9819336 L77.3574219,19.9819336 L79.0395508,14.7578125 L80.4487305,14.7578125 L77.7319336,22.3876953 C77.4949532,22.9505236 77.2378757,23.38216 76.9606934,23.6826172 C76.683511,23.9830744 76.2698595,24.1333008 75.7197266,24.1333008 C75.6308589,24.1333008 75.5282395,24.1269532 75.4118652,24.1142578 C75.295491,24.1015624 75.216146,24.0888673 75.1738281,24.0761719 L75.1801758,23.1240234 C75.2140301,23.1367188 75.2838536,23.1451823 75.3896484,23.1494141 C75.4954432,23.1536459 75.5800778,23.1557617 75.6435547,23.1557617 C75.9143894,23.1557617 76.1175123,23.0668954 76.2529297,22.8891602 C76.388347,22.7114249 76.513183,22.4490577 76.6274414,22.1020508 L76.8051758,21.6069336 L74.0820312,14.7578125 L75.4848633,14.7578125 L77.1035156,19.3217773 Z M86.9931641,15.7480469 L84.6191406,15.7480469 L84.6191406,24 L83.3305664,24 L83.3305664,15.7480469 L80.9692383,15.7480469 L80.9692383,14.7578125 L86.9931641,14.7578125 L86.9931641,15.7480469 Z M89.3925781,18.5283203 L91.0175781,18.5283203 C91.8893273,18.5283203 92.5727514,18.7748185 93.0678711,19.2678223 C93.5629908,19.760826 93.8105469,20.4178019 93.8105469,21.2387695 C93.8105469,22.0724326 93.5619328,22.7410457 93.0646973,23.2446289 C92.5674617,23.7482122 91.8850955,24 91.0175781,24 L88.1103516,24 L88.1103516,14.7578125 L89.3925781,14.7578125 L89.3925781,18.5283203 Z M95.9433594,24 L94.6611328,24 L94.6611328,14.7578125 L95.9433594,14.7578125 L95.9433594,24 Z M89.3925781,19.512207 L89.3925781,23.0224609 L91.0175781,23.0224609 C91.5126978,23.0224609 91.8872058,22.8531918 92.1411133,22.5146484 C92.3950208,22.1761051 92.5219727,21.7465846 92.5219727,21.2260742 C92.5219727,20.7309546 92.3950208,20.3215348 92.1411133,19.9978027 C91.8872058,19.6740706 91.5126978,19.512207 91.0175781,19.512207 L89.3925781,19.512207 Z M102.55127,14.7578125 L103.839844,14.7578125 L103.839844,24 L102.55127,24 L102.55127,17.2587891 L102.513184,17.2460938 L99.015625,24 L97.7270508,24 L97.7270508,14.7578125 L99.015625,14.7578125 L99.015625,21.4926758 L99.0537109,21.5053711 L102.55127,14.7578125 Z M102.557617,12.1171875 L102.570312,12.1552734 C102.58724,12.6546249 102.43384,13.0608708 102.110107,13.3740234 C101.786375,13.687176 101.349449,13.84375 100.799316,13.84375 C100.244952,13.84375 99.8059098,13.687176 99.4821777,13.3740234 C99.1584456,13.0608708 99.0071614,12.6546249 99.0283203,12.1552734 L99.0410156,12.1171875 L99.9995117,12.1171875 C99.9995117,12.3964858 100.064046,12.6249991 100.193115,12.8027344 C100.322185,12.9804696 100.52425,13.0693359 100.799316,13.0693359 C101.061688,13.0693359 101.257405,12.9804696 101.386475,12.8027344 C101.515544,12.6249991 101.580078,12.3964858 101.580078,12.1171875 L102.557617,12.1171875 Z" id="ПРОДВИНУТЫЙ" fill="#FFFFFF"></path>
                <g id="Group-5" transform="translate(0.000000, 52.000000)">
                    <polygon id="Shape" fill="#006FBC" fill-rule="nonzero" points="120 23 125 23 125 17 120 14"></polygon>
                    <polygon id="Shape" fill-opacity="0.33" fill="#000000" fill-rule="nonzero" points="6.07 29.777 120 14 120 42 6.07 57.777"></polygon>
                    <polygon id="Shape" fill="#3297EE" fill-rule="nonzero" points="0 31 125 17 125 45 0 59"></polygon>
                    <path d="M10.004,44.813 L6.555,45.228 C6.505,46.531 6.525,47.288 6.803,47.618 C6.941,47.806 7.195,47.918 7.535,47.877 C7.8324275,47.8507424 8.10606223,47.703623 8.292,47.47 C8.512,47.206 8.588,46.88 8.603,46.484 L9.915,46.326 C9.87,47.09 9.655,47.686 9.165,48.234 C8.745,48.696 8.171,48.954 7.491,49.036 C6.779,49.122 6.267,49.01 5.847,48.602 C5.24,48.027 5.174,46.802 5.239,45.087 C5.304,43.356 5.464,42.119 6.104,41.394 C6.558,40.881 7.099,40.642 7.78,40.56 C8.46,40.478 8.988,40.588 9.407,40.996 C10.014,41.571 10.081,42.78 10.004,44.813 Z M8.714,44.004 C8.758,42.814 8.716,42.234 8.468,41.963 C8.314,41.776 8.092,41.676 7.736,41.719 C7.43854563,41.7425926 7.16682979,41.8967603 6.994,42.14 C6.724,42.473 6.637,43.069 6.592,44.26 L8.713,44.004 L8.714,44.004 Z M15.587,45.643 L14.275,45.801 C14.261,46.181 14.2,46.521 13.963,46.803 C13.7806498,47.0205956 13.5212315,47.1592625 13.239,47.19 C12.932,47.227 12.661,47.133 12.508,46.93 C12.216,46.555 12.231,45.715 12.288,44.238 C12.344,42.745 12.392,41.902 12.714,41.468 C12.884,41.226 13.164,41.065 13.472,41.028 C13.796,40.989 14.019,41.058 14.19,41.242 C14.406,41.485 14.425,41.831 14.413,42.164 L15.724,42.006 C15.719,41.311 15.614,40.644 15.114,40.23 C14.693,39.87 14.18,39.79 13.5,39.871 C12.788,39.957 12.148,40.239 11.706,40.846 C11.163,41.559 11.022,42.73 10.959,44.398 C10.897,46.049 10.949,47.213 11.443,47.802 C11.843,48.307 12.467,48.437 13.179,48.352 C13.859,48.269 14.433,48.027 14.853,47.581 C15.307,47.083 15.525,46.425 15.587,45.643 Z M20.597,40.281 L20.641,39.138 L16.123,39.682 L16.079,40.825 L17.683,40.632 L17.415,47.715 L18.726,47.557 L18.994,40.474 L20.598,40.281 L20.597,40.281 Z M25.902,44.195 C25.838,45.895 25.176,46.78 23.492,46.983 L21.208,47.258 L21.519,39.032 L22.831,38.874 L22.711,42.066 L23.682,41.949 C25.366,41.746 25.967,42.48 25.902,44.195 Z M24.59,44.353 C24.627,43.384 24.319,43.011 23.574,43.1 L22.667,43.21 L22.563,45.957 L23.47,45.847 C24.215,45.757 24.554,45.306 24.59,44.353 Z M35.438,39.917 C35.322,42.982 35.203,44.008 34.428,44.876 C33.99,45.387 33.362,45.795 32.422,45.908 L29.767,46.228 L30.194,34.921 L32.85,34.601 C33.79,34.488 34.392,34.747 34.796,35.157 C35.511,35.845 35.554,36.852 35.438,39.917 Z M34.045,40.085 C34.144,37.48 34.145,36.611 33.727,36.139 C33.526,35.91 33.209,35.775 32.755,35.829 L31.541,35.976 L31.206,44.837 L32.42,44.691 C32.8151656,44.6521493 33.1775663,44.454345 33.424,44.143 C33.881,43.566 33.947,42.689 34.045,40.085 Z M41.171,44.855 L41.217,43.632 L38.157,44 L38.302,40.157 L40.942,39.839 L40.988,38.616 L38.348,38.934 L38.492,35.139 L41.552,34.77 L41.599,33.547 L37.146,34.084 L36.718,45.391 L41.171,44.854 L41.171,44.855 Z M49.839,43.811 L50.267,32.504 L48.955,32.662 L46.401,39.229 L44.307,33.221 L42.996,33.379 L42.568,44.686 L43.961,44.519 L44.261,36.594 L45.863,41.539 L46.721,41.435 L48.751,35.927 L48.446,43.978 L49.839,43.811 Z M57.199,37.297 C57.08,40.425 56.944,41.453 56.169,42.353 C55.697,42.9 55.069,43.307 54.162,43.417 C53.255,43.526 52.652,43.267 52.218,42.829 C51.503,42.109 51.445,41.104 51.563,37.975 C51.681,34.847 51.817,33.819 52.593,32.919 C53.0973875,32.316381 53.8171932,31.9345897 54.599,31.855 C55.506,31.746 56.109,32.005 56.544,32.443 C57.258,33.163 57.317,34.168 57.198,37.297 L57.199,37.297 Z M55.806,37.464 C55.907,34.781 55.861,33.885 55.476,33.394 C55.291,33.164 55.006,33.024 54.553,33.078 C54.1,33.133 53.785,33.345 53.581,33.622 C53.156,34.211 53.057,35.124 52.956,37.808 C52.854,40.491 52.885,41.388 53.269,41.88 C53.454,42.11 53.755,42.248 54.209,42.194 C54.662,42.139 54.959,41.929 55.164,41.652 C55.589,41.063 55.704,40.148 55.806,37.464 Z M63.102,39.874 C63.066,40.827 62.87,41.309 62.418,41.759 C62.032,42.153 61.474,42.409 60.6,42.515 L58.365,42.785 L58.676,34.558 L60.911,34.288 C61.737,34.189 62.283,34.25 62.658,34.568 C63.064,34.915 63.208,35.356 63.177,36.182 C63.152,36.849 62.94,37.332 62.572,37.693 C62.438,37.82 62.222,37.988 62.058,38.071 C62.233,38.113 62.471,38.211 62.597,38.307 C62.988,38.607 63.131,39.112 63.102,39.874 Z M61.793,39.953 C61.829,39 61.438,38.683 60.644,38.779 L59.786,38.882 L59.686,41.534 L60.544,41.431 C61.338,41.335 61.754,41.001 61.793,39.953 Z M61.861,36.451 C61.895,35.546 61.517,35.307 60.805,35.392 L59.915,35.5 L59.825,37.866 L60.715,37.759 C61.428,37.673 61.829,37.309 61.861,36.451 Z M68.845,37.728 L65.395,38.143 C65.346,39.446 65.366,40.203 65.644,40.533 C65.782,40.721 66.036,40.833 66.376,40.792 C66.6734275,40.7657424 66.9470622,40.618623 67.133,40.385 C67.353,40.121 67.429,39.795 67.443,39.399 L68.756,39.241 C68.711,40.005 68.495,40.601 68.006,41.149 C67.586,41.611 67.012,41.869 66.332,41.951 C65.619,42.037 65.108,41.925 64.688,41.517 C64.081,40.942 64.014,39.717 64.079,38.002 C64.145,36.271 64.304,35.034 64.944,34.309 C65.399,33.796 65.94,33.557 66.62,33.475 C67.3,33.393 67.828,33.503 68.248,33.911 C68.855,34.486 68.922,35.695 68.845,37.728 Z M67.554,36.919 C67.599,35.729 67.556,35.149 67.309,34.878 C67.154,34.691 66.933,34.591 66.576,34.634 C66.2789053,34.6578796 66.0076104,34.8120161 65.835,35.055 C65.565,35.388 65.477,35.984 65.432,37.175 L67.554,36.919 Z M74.771,36.714 C74.699,38.62 74.577,39.725 74.019,40.409 C73.63,40.883 73.219,41.122 72.603,41.196 C72.263,41.237 71.974,41.193 71.705,41.067 C71.5310947,40.9608388 71.3779379,40.8239465 71.253,40.663 L71.115,44.316 L69.803,44.474 L70.231,33.167 L71.51,33.013 L71.486,33.648 C71.573,33.463 71.857,33.208 72.007,33.079 C72.2756179,32.8798097 72.591826,32.7546368 72.924,32.716 C73.507,32.646 73.937,32.768 74.294,33.152 C74.804,33.707 74.844,34.809 74.771,36.714 Z M73.443,36.874 C73.508,35.174 73.485,34.482 73.207,34.168 C73.053,33.981 72.815,33.883 72.507,33.92 C72.232,33.953 72.002,34.06 71.817,34.256 C71.599,34.488 71.475,34.787 71.458,35.232 L71.316,38.996 C71.299,39.44 71.401,39.728 71.604,39.91 C71.775,40.063 71.999,40.115 72.274,40.082 C72.582,40.045 72.83,39.888 72.999,39.662 C73.304,39.278 73.379,38.573 73.443,36.874 Z M80.391,37.84 L79.079,37.998 C79.065,38.378 79.004,38.718 78.767,39 C78.5846498,39.2175956 78.3252315,39.3562625 78.043,39.387 C77.736,39.424 77.465,39.33 77.312,39.127 C77.02,38.752 77.035,37.912 77.092,36.435 C77.148,34.942 77.196,34.098 77.518,33.665 C77.688,33.423 77.968,33.262 78.276,33.225 C78.6,33.186 78.823,33.255 78.994,33.439 C79.21,33.682 79.229,34.027 79.217,34.361 L80.528,34.203 C80.523,33.508 80.418,32.841 79.918,32.427 C79.497,32.067 78.984,31.987 78.304,32.068 C77.592,32.154 76.952,32.436 76.51,33.043 C75.967,33.756 75.826,34.927 75.763,36.595 C75.701,38.246 75.753,39.41 76.247,39.999 C76.647,40.504 77.271,40.634 77.983,40.549 C78.663,40.466 79.237,40.223 79.657,39.778 C80.111,39.28 80.329,38.622 80.391,37.84 Z M86.202,39.432 L86.514,31.206 L85.315,31.35 L82.858,37.068 L83.064,31.621 L81.753,31.779 L81.441,40.005 L82.64,39.861 L85.08,34.145 L84.875,39.592 L86.202,39.432 Z M91.972,38.738 L90.66,38.895 L90.786,35.561 L89.911,35.666 L88.619,39.141 L87.227,39.309 L88.707,35.558 C87.927,35.272 87.666,34.513 87.704,33.498 C87.764,31.925 88.396,30.979 90.08,30.776 L92.283,30.511 L91.972,38.738 Z M90.829,34.433 L90.929,31.797 L90.054,31.902 C89.309,31.992 89.064,32.512 89.032,33.337 C89.002,34.147 89.225,34.626 89.954,34.538 L90.829,34.433 Z" id="Shape" fill="#FFFFFF" fill-rule="nonzero"></path>
                    <path d="M111.39,57.897 C111.824,58.912 112.945,59.292 113.911,58.735 L115.973,57.545 C116.931,56.993 117.319,55.736 116.843,54.745 L110.474,41.506 L116.402,41.224 C120.26,41.04 121.15,38.696 118.392,35.991 L101.317,19.243 C98.558,16.537 96.335,17.478 96.352,21.351 L96.462,46.661 C96.478,50.532 98.66,51.409 101.337,48.62 L105.546,44.233 L111.39,57.897 Z" id="Shape" fill="#000000" fill-rule="nonzero" opacity="0.2"></path>
                    <path d="M113.39,52.897 C113.824,53.912 114.945,54.292 115.911,53.735 L117.973,52.545 C118.931,51.993 119.319,50.736 118.843,49.745 L112.474,36.506 L118.402,36.224 C122.26,36.04 123.15,33.696 120.392,30.991 L103.317,14.243 C100.558,11.537 98.335,12.478 98.352,16.351 L98.462,41.661 C98.478,45.532 100.66,46.409 103.337,43.62 L107.546,39.233 L113.39,52.897 Z" id="Shape" fill="#FFFFFF" fill-rule="nonzero"></path>
                    <path d="M116.917,52.24 C119.05,51.383 117.732,49.355 117.732,49.355 L111.478,35.528 L118.547,35.528 C121.309,35.392 121.591,33.257 119.621,31.324 L102.391,14.424 C101.345,13.399 100.407,13.107 99.759,13.47 C99.759,13.47 114.465,52.24 116.917,52.24 Z" id="Shape" fill="#E2E2E2" fill-rule="nonzero"></path>
                    <g id="Group" stroke-linecap="round" transform="translate(90.000000, 0.000000)" stroke="#FFFFFF" stroke-width="2">
                        <path d="M12.5,9 L18.545,9 M11.5,6 L14.013,3.58" id="Shape"></path>
                        <path d="M6.013,6 L3.859,4.001 L6.013,6 Z" id="Shape" stroke-linejoin="round"></path>
                        <path d="M0.281,17.412 L6.013,11.581 M0.5,9 L4.545,9 M8.5,0 L8.545,5 M8.5,9 L8.545,9 M16.5,1 L16.545,1 M1.5,2 L1.545,2" id="Shape"></path>
                    </g>
                </g>
            </g>
        </g>
    </g>
</svg>