<svg xmlns="http://www.w3.org/2000/svg" xmlns:xlink="http://www.w3.org/1999/xlink" width="508" height="174" viewBox="0 0 508 174"><defs><path id="oucua" d="M1511 392v-56h70v56zm4-6c0 1.1.9 2 2 2h58a2 2 0 0 0 2-2v-44a2 2 0 0 0-2-2h-58a2 2 0 0 0-2 2z"/><path id="oucub" d="M1138 371v-28h28v28zm2-4c0 1.1.9 2 2 2h22v-24h-22a2 2 0 0 0-2 2z"/><path id="oucuc" d="M1120.9 284.69l-3.73 2.78.06-4.65-3.8-2.68 4.44-1.38 1.38-4.44 2.68 3.8 4.65-.07-2.78 3.73 1.5 4.4z"/><path id="oucud" d="M1268.08 346.57l-5.25 1.88 1.7-5.3-3.4-4.4 5.56-.03 3.14-4.6 1.74 5.28 5.35 1.56-4.49 3.3.17 5.57z"/><path id="oucue" d="M1097.9 397.43l-2.96 1.56.57-3.3-2.4-2.34 3.31-.48 1.49-3.01 1.48 3 3.32.49-2.4 2.34.56 3.3z"/><path id="oucuf" d="M1560.67 293.57l-2.97 2.3-.02-3.76-3.11-2.12 3.57-1.18 1.06-3.61 2.22 3.03 3.77-.11-2.2 3.06 1.27 3.54z"/><path id="oucug" d="M1590 306a5 5 0 1 1 10 0 5 5 0 0 1-10 0z"/><path id="oucuh" d="M1165 410a4 4 0 1 1 8 0 4 4 0 0 1-8 0z"/><path id="oucui" d="M1103 328a3 3 0 1 1 6 0 3 3 0 0 1-6 0z"/><path id="oucuj" d="M1227 299v3a8 8 0 0 1-8 8h-36a8 8 0 0 1-8-8v-36a8 8 0 0 1 8-8h36a8 8 0 0 1 8 8v23"/><path id="oucuk" d="M1189 274h24"/><path id="oucul" d="M1189 284h24"/><path id="oucum" d="M1189 294h24"/><path id="oucun" d="M1452 371v16a10 10 0 0 1-10 10h-110a10 10 0 0 1-10-10V277a10 10 0 0 1 10-10h110a10 10 0 0 1 10 10v68"/><path id="oucuo" d="M1337.43 287.43a5 5 0 0 1 5-5h36.96a5 5 0 0 1 5 5v36.96a5 5 0 0 1-5 5h-36.96a5 5 0 0 1-5-5z"/><path id="oucup" d="M1353.09 305.9h15.65"/><path id="oucuq" d="M1360.9 298.09v15.65"/><path id="oucur" d="M1389.61 287.43a5 5 0 0 1 5-5h36.96a5 5 0 0 1 5 5v36.96a5 5 0 0 1-5 5h-36.96a5 5 0 0 1-5-5z"/><path id="oucus" d="M1405.26 305.9h15.65"/><path id="oucut" d="M1337.43 339.61a5 5 0 0 1 5-5h36.96a5 5 0 0 1 5 5v36.96a5 5 0 0 1-5 5h-36.96a5 5 0 0 1-5-5z"/><path id="oucuu" d="M1352.91 358.16h15.65"/><path id="oucuv" d="M1360.74 350.33v15.65"/><path id="oucuw" d="M1389.61 339.61a5 5 0 0 1 5-5h36.96a5 5 0 0 1 5 5v36.96a5 5 0 0 1-5 5h-36.96a5 5 0 0 1-5-5z"/><path id="oucux" d="M1405.26 363.3h15.65"/><path id="oucuy" d="M1405.26 352.87h15.65"/><path id="oucuz" d="M1485.5 281.96v-27.48c0-1.1.9-2 2-2h31a2 2 0 0 1 2 2v27.48"/><path id="oucuA" d="M1493.5 266h19"/><path id="oucuB" d="M1497.5 273h11"/><path id="oucuC" d="M1485.5 278v9.5l5.5-2 6 2 6-2 6 2 6-2 5.5 2v-6"/><path id="oucuD" d="M1515 342c0-1.1.9-2 2-2h58a2 2 0 0 1 2 2v44a2 2 0 0 1-2 2h-58a2 2 0 0 1-2-2z"/><path id="oucuF" d="M1527 354a5 5 0 1 1 10 0 5 5 0 0 1-10 0z"/><path id="oucuG" d="M1527 379l6.72-10.02a2.83 2.83 0 0 1 4.14-.52l4.55 3.85a2.83 2.83 0 0 0 4.1-.46l5.32-8.44a2.83 2.83 0 0 1 4.68.22L1565 379"/><path id="oucuH" d="M1532 401a3 3 0 1 1 6 0 3 3 0 0 1-6 0z"/><path id="oucuI" d="M1543 401a3 3 0 1 1 6 0 3 3 0 0 1-6 0z"/><path id="oucuJ" d="M1554 401a3 3 0 1 1 6 0 3 3 0 0 1-6 0z"/><path id="oucuK" d="M1252.96 411.94a16.5 16.5 0 1 0-14.59-26.43"/><path id="oucuL" d="M1252.88 415v-21H1232s.7 13.23 11.83 18.8"/><path id="oucuM" d="M1140 352h13.5"/><path id="oucuN" d="M1157.5 344.5v7.5h3.5"/><path id="oucuO" d="M1140 347c0-1.1.9-2 2-2h22v24h-22a2 2 0 0 1-2-2z"/><path id="oucuQ" d="M1142 348a1 1 0 1 1 2 0 1 1 0 0 1-2 0zm3 0a1 1 0 1 1 2 0 1 1 0 0 1-2 0zm3 0a1 1 0 1 1 2 0 1 1 0 0 1-2 0z"/><path id="oucuR" d="M1143 357h18"/><path id="oucuS" d="M1143 365h18"/><path id="oucuT" d="M1143 361h18"/><path id="oucuU" d="M1281 259l12-12"/><path id="oucuV" d="M1279 248a3 3 0 1 1 6 0 3 3 0 0 1-6 0z"/><path id="oucuW" d="M1295 258a3 3 0 1 0-3 3"/><clipPath id="oucuE"><use fill="#fff" xlink:href="#oucua"/></clipPath><clipPath id="oucuP"><use fill="#fff" xlink:href="#oucub"/></clipPath></defs><g><g clip-path="url(#clip-F3F5C8D9-ED3C-402D-8920-B98E54A6202C)" transform="translate(-1093 -243)"><g><g opacity=".15"><use fill="#fff" xlink:href="#oucuc"/></g><g opacity=".1"><use fill="#fff" xlink:href="#oucud"/></g><g opacity=".3"><use fill="#fff" xlink:href="#oucue"/></g><g opacity=".15"><use fill="#fff" xlink:href="#oucuf"/></g></g><g><use fill="#fff" fill-opacity="0" stroke="#fff" stroke-miterlimit="50" stroke-width="2" xlink:href="#oucug"/></g><g><use fill="#fff" fill-opacity="0" stroke="#fff" stroke-miterlimit="50" stroke-width="2" xlink:href="#oucuh"/></g><g><use fill="#fff" fill-opacity="0" stroke="#fff" stroke-miterlimit="50" stroke-width="2" xlink:href="#oucui"/></g><g opacity=".77"><g opacity=".77"><use fill="#fff" fill-opacity="0" stroke="#fff" stroke-linecap="round" stroke-miterlimit="50" stroke-width="4" xlink:href="#oucuj"/></g><g opacity=".77"><g opacity=".77"><use fill="#fff" fill-opacity="0" stroke="#fff" stroke-linecap="round" stroke-miterlimit="50" stroke-width="4" xlink:href="#oucuk"/></g><g opacity=".77"><use fill="#fff" fill-opacity="0" stroke="#fff" stroke-linecap="round" stroke-miterlimit="50" stroke-width="4" xlink:href="#oucul"/></g><g opacity=".77"><use fill="#fff" fill-opacity="0" stroke="#fff" stroke-linecap="round" stroke-miterlimit="50" stroke-width="4" xlink:href="#oucum"/></g></g></g><g opacity=".9"><g opacity=".9"><use fill="#fff" fill-opacity="0" stroke="#fff" stroke-linecap="round" stroke-miterlimit="50" stroke-width="10" xlink:href="#oucun"/></g><g opacity=".9"><g opacity=".18"><use fill="#fff" xlink:href="#oucuo"/></g><g opacity=".9"><use fill="#fff" fill-opacity="0" stroke="#fff" stroke-linecap="round" stroke-miterlimit="50" stroke-width="5" xlink:href="#oucup"/></g><g opacity=".9"><use fill="#fff" fill-opacity="0" stroke="#fff" stroke-linecap="round" stroke-miterlimit="50" stroke-width="5" xlink:href="#oucuq"/></g></g><g opacity=".9"><g opacity=".18"><use fill="#fff" xlink:href="#oucur"/></g><g opacity=".9"><use fill="#fff" fill-opacity="0" stroke="#fff" stroke-linecap="round" stroke-miterlimit="50" stroke-width="5" xlink:href="#oucus"/></g></g><g opacity=".9"><g opacity=".18"><use fill="#fff" xlink:href="#oucut"/></g><g opacity=".9" transform="rotate(45 1361 358)"><g opacity=".9"><use fill="#fff" fill-opacity="0" stroke="#fff" stroke-linecap="round" stroke-miterlimit="50" stroke-width="5" xlink:href="#oucuu"/></g><g opacity=".9"><use fill="#fff" fill-opacity="0" stroke="#fff" stroke-linecap="round" stroke-miterlimit="50" stroke-width="5" xlink:href="#oucuv"/></g></g></g><g opacity=".9"><g opacity=".18"><use fill="#fff" xlink:href="#oucuw"/></g><g opacity=".9"><use fill="#fff" fill-opacity="0" stroke="#fff" stroke-linecap="round" stroke-miterlimit="50" stroke-width="5" xlink:href="#oucux"/></g><g opacity=".9"><use fill="#fff" fill-opacity="0" stroke="#fff" stroke-linecap="round" stroke-miterlimit="50" stroke-width="5" xlink:href="#oucuy"/></g></g></g><g opacity=".25"><g opacity=".25"><use fill="#fff" fill-opacity="0" stroke="#fff" stroke-linecap="round" stroke-miterlimit="50" stroke-width="3" xlink:href="#oucuz"/></g><g opacity=".25"><use fill="#fff" fill-opacity="0" stroke="#fff" stroke-linecap="round" stroke-miterlimit="50" stroke-width="3" xlink:href="#oucuA"/></g><g opacity=".25"><use fill="#fff" fill-opacity="0" stroke="#fff" stroke-linecap="round" stroke-miterlimit="50" stroke-width="3" xlink:href="#oucuB"/></g><g opacity=".25"><use fill="#fff" fill-opacity="0" stroke="#fff" stroke-linecap="round" stroke-miterlimit="50" stroke-width="3" xlink:href="#oucuC"/></g></g><g opacity=".5"><g opacity=".5"><g opacity=".5"><g opacity=".5"><use fill="#fff" fill-opacity="0" stroke="#fff" stroke-miterlimit="50" stroke-width="8" clip-path="url(&quot;#oucuE&quot;)" xlink:href="#oucuD"/></g></g><g opacity=".5"><g opacity=".5"><use fill="#fff" xlink:href="#oucuF"/></g><g opacity=".5"><use fill="#fff" fill-opacity="0" stroke="#fff" stroke-linecap="round" stroke-miterlimit="50" stroke-width="4" xlink:href="#oucuG"/></g></g></g><g opacity=".5"><g opacity=".5"><use fill="#fff" xlink:href="#oucuH"/></g><g opacity=".5"><use fill="#fff" xlink:href="#oucuI"/></g><g opacity=".5"><use fill="#fff" xlink:href="#oucuJ"/></g></g></g><g opacity=".65"><g opacity=".65"><use fill="#fff" fill-opacity="0" stroke="#fff" stroke-linecap="round" stroke-miterlimit="50" stroke-width="3" xlink:href="#oucuK"/></g><g opacity=".65"><use fill="#fff" fill-opacity="0" stroke="#fff" stroke-linecap="round" stroke-miterlimit="50" stroke-width="3" xlink:href="#oucuL"/></g></g><g opacity=".3"><g opacity=".3"><g opacity=".3"><use fill="#fff" fill-opacity="0" stroke="#fff" stroke-linecap="round" stroke-miterlimit="50" stroke-width="2" xlink:href="#oucuM"/></g><g opacity=".3"><use fill="#fff" fill-opacity="0" stroke="#fff" stroke-linecap="round" stroke-miterlimit="50" stroke-width="2" xlink:href="#oucuN"/></g><g opacity=".3"><use fill="#fff" fill-opacity="0" stroke="#fff" stroke-miterlimit="50" stroke-width="4" clip-path="url(&quot;#oucuP&quot;)" xlink:href="#oucuO"/></g><g opacity=".3"><use fill="#fff" xlink:href="#oucuQ"/></g></g><g opacity=".3"><g opacity=".3"><use fill="#fff" fill-opacity="0" stroke="#fff" stroke-linecap="round" stroke-miterlimit="50" stroke-width="2" xlink:href="#oucuR"/></g><g opacity=".3"><use fill="#fff" fill-opacity="0" stroke="#fff" stroke-linecap="round" stroke-miterlimit="50" stroke-width="2" xlink:href="#oucuS"/></g><g opacity=".3"><use fill="#fff" fill-opacity="0" stroke="#fff" stroke-linecap="round" stroke-miterlimit="50" stroke-width="2" xlink:href="#oucuT"/></g></g></g><g opacity=".2"><g opacity=".2"><use fill="#fff" fill-opacity="0" stroke="#fff" stroke-linecap="round" stroke-miterlimit="50" stroke-width="2" xlink:href="#oucuU"/></g><g opacity=".2"><use fill="#fff" fill-opacity="0" stroke="#fff" stroke-linecap="round" stroke-miterlimit="50" stroke-width="2" xlink:href="#oucuV"/></g><g opacity=".2"><use fill="#fff" fill-opacity="0" stroke="#fff" stroke-linecap="round" stroke-miterlimit="50" stroke-width="2" xlink:href="#oucuW"/></g></g></g></g></svg>