<svg width="160" height="130" viewBox="0 0 160 130" fill="none" xmlns="http://www.w3.org/2000/svg">
<g clip-path="url(#clip0)">
<g filter="url(#filter0_d)">
<path d="M18.9912 84.0831L12.1736 0H153.914C157.228 0 159.914 2.68629 159.914 6V76.2492C159.914 80.489 156.606 83.9925 152.373 84.236L27.4244 91.4233C23.0864 91.6729 19.3424 88.4141 18.9912 84.0831Z" fill="url(#paint0_linear)"/>
</g>
<mask id="mask0" mask-type="alpha" maskUnits="userSpaceOnUse" x="12" y="0" width="148" height="92">
<path d="M18.9912 84.0831L12.1736 0H153.914C157.228 0 159.914 2.68629 159.914 6V76.2492C159.914 80.489 156.606 83.9925 152.373 84.236L27.4244 91.4233C23.0864 91.6729 19.3424 88.4141 18.9912 84.0831Z" fill="url(#paint1_linear)"/>
</mask>
<g mask="url(#mask0)">
<g filter="url(#filter1_d)">
<path d="M18.9912 84.0831L12.1736 0H153.914C157.228 0 159.914 2.68629 159.914 6V76.2492C159.914 80.489 156.606 83.9925 152.373 84.236L27.4244 91.4233C23.0864 91.6729 19.3424 88.4141 18.9912 84.0831Z" fill="url(#paint2_linear)"/>
</g>
<path d="M22.8835 82.2736L16.2388 -1.89271C16.0552 -4.21871 17.8932 -6.20752 20.2264 -6.20752H150.189C153.503 -6.20752 156.189 -3.52123 156.189 -0.207526V74.4312C156.189 77.6036 153.72 80.2278 150.553 80.4202L29.2287 87.7903C25.9634 87.9887 23.141 85.5348 22.8835 82.2736Z" stroke="white" stroke-opacity="0.4" stroke-linecap="round" stroke-dasharray="3 3"/>
<path d="M180.026 24.8303C181.02 26.9409 181.765 29.1756 182.261 31.5345L152.217 63.3173C152.092 63.3173 151.844 63.3173 151.72 63.1931C149.485 62.8207 147.375 62.1999 145.388 61.455L180.026 24.8303ZM129 32.5277C128.876 32.9002 128.876 33.3968 128.876 33.7692L151.472 9.93213C140.174 11.7944 130.862 20.6092 129 32.5277ZM161.031 63.069C171.832 60.9584 180.771 52.1436 182.51 40.5976C182.51 40.4734 182.51 40.4734 182.51 40.3492L161.031 63.069ZM135.208 54.1301C136.573 55.744 138.187 57.1097 139.801 58.3512L176.55 19.4918C175.185 17.8778 173.695 16.388 172.081 15.1465L135.208 54.1301ZM129.373 42.3357C129.869 44.5704 130.614 46.8051 131.732 48.9157L166.618 11.9186C164.632 10.9253 162.397 10.3046 160.038 9.93213L129.373 42.3357Z" fill="#FFC587" fill-opacity="0.22"/>
<path d="M120.864 29.4215C119.431 29.5121 118.538 28.5153 117.859 27.6965C117.234 26.9222 116.847 26.5158 116.179 26.5581C115.51 26.6003 115.282 27.0935 114.802 27.8897C114.334 28.781 113.752 29.9189 112.266 29.965C110.833 30.0556 109.94 29.0588 109.261 28.24C108.636 27.4656 108.249 27.0593 107.581 27.1015C106.912 27.1438 106.684 27.6369 106.204 28.4332C105.736 29.3245 105.154 30.4623 103.668 30.5084C102.235 30.599 101.342 29.6023 100.663 28.7834C100.039 28.0091 99.6516 27.6027 98.9829 27.645C98.6007 27.6691 98.1718 27.3133 98.125 26.9333C98.0782 26.5532 98.4136 26.1491 98.7957 26.1249C100.229 26.0343 101.122 27.0311 101.8 27.8499C102.425 28.6242 102.812 29.0306 103.481 28.9884C104.149 28.9461 104.378 28.4529 104.857 27.6567C105.325 26.7654 105.907 25.6275 107.394 25.5814C108.827 25.4909 109.72 26.4876 110.398 27.3064C111.023 28.0808 111.41 28.4872 112.079 28.4449C112.747 28.4026 112.975 27.9095 113.455 27.1132C113.923 26.2219 114.505 25.0841 115.992 25.038C117.52 24.9414 118.317 25.9441 118.996 26.763C119.621 27.5373 120.008 27.9437 120.676 27.9014C121.059 27.8773 121.488 28.2331 121.534 28.6132C121.593 29.0882 121.299 29.4418 120.864 29.4215Z" fill="#F8B300"/>
<circle cx="111.495" cy="65.8004" r="3.72455" fill="white" fill-opacity="0.1"/>
<circle cx="19.002" cy="1.86226" r="11.7944" fill="white" fill-opacity="0.1"/>
</g>
<g filter="url(#filter2_d)">
<path fill-rule="evenodd" clip-rule="evenodd" d="M64.2507 67.0419C64.757 67.0419 65.179 67.0419 65.601 67.0419C68.2173 67.3805 69.652 68.9041 71.0868 70.4278C72.5215 70.0892 73.7874 69.5813 75.3066 69.5813C79.864 69.7506 81.7207 73.4752 82.0583 78.0462C85.0122 79.2313 88.4724 80.501 88.81 84.5642C89.0632 87.019 87.8816 88.7966 86.9533 90.3203C87.7972 91.6747 88.81 92.9444 89.1476 94.976C89.1476 95.4839 89.1476 95.9071 89.1476 96.415C88.6412 99.9702 86.1093 101.409 83.3242 102.679C83.2398 105.388 82.9867 107.673 81.8051 109.282C80.3704 111.313 77.8385 112.329 74.547 111.736C74.125 111.652 73.2811 111.313 72.8591 111.398C72.4371 111.482 71.9307 112.498 71.5087 113.006C70.4116 114.276 68.8925 115.122 66.7825 115.461C66.5294 115.461 66.3606 115.461 66.1074 115.461C63.0691 115.207 61.7188 113.345 60.0308 111.821C58.5117 112.075 57.4146 112.752 55.7266 112.752C51.2536 112.752 49.0593 109.197 48.8905 104.626C45.5991 103.61 42.392 101.833 42.392 97.6847C42.392 95.3146 43.5735 93.9602 44.3331 92.1826C43.4892 90.6589 42.3076 89.3891 42.0544 87.1883C41.97 86.5111 41.97 86.0878 41.97 85.6646C42.4764 82.2786 44.7551 80.6703 47.5402 79.6545C47.287 74.1524 49.7345 70.3432 55.1359 70.7664C56.233 70.8511 57.077 71.1897 58.3429 71.2743C59.9464 69.4967 61.2968 67.3805 64.2507 67.0419Z" fill="url(#paint3_linear)"/>
</g>
<g filter="url(#filter3_i)">
<path fill-rule="evenodd" clip-rule="evenodd" d="M64.2507 65.8003C64.757 65.8003 65.179 65.8003 65.601 65.8003C68.2173 66.1389 69.652 67.6626 71.0868 69.1862C72.5215 68.8476 73.7874 68.3398 75.3066 68.3398C79.864 68.5091 81.7207 72.2336 82.0583 76.8046C85.0122 77.9897 88.4724 79.2594 88.81 83.3226C89.0632 85.7774 87.8816 87.555 86.9533 89.0787C87.7972 90.4331 88.81 91.7028 89.1476 93.7344C89.1476 94.2423 89.1476 94.6655 89.1476 95.1734C88.6412 98.7287 86.1093 100.168 83.3242 101.437C83.2398 104.146 82.9867 106.432 81.8051 108.04C80.3704 110.072 77.8385 111.087 74.547 110.495C74.125 110.41 73.2811 110.072 72.8591 110.156C72.4371 110.241 71.9307 111.257 71.5087 111.765C70.4116 113.034 68.8925 113.881 66.7825 114.219C66.5294 114.219 66.3606 114.219 66.1074 114.219C63.0691 113.965 61.7188 112.103 60.0308 110.579C58.5117 110.833 57.4146 111.511 55.7266 111.511C51.2536 111.511 49.0593 107.955 48.8905 103.384C45.5991 102.369 42.392 100.591 42.392 96.4431C42.392 94.073 43.5735 92.7186 44.3331 90.941C43.4892 89.4173 42.3076 88.1476 42.0544 85.9467C41.97 85.2695 41.97 84.8463 41.97 84.423C42.4764 81.0371 44.7551 79.4287 47.5402 78.413C47.287 72.9108 49.7345 69.1016 55.1359 69.5248C56.233 69.6095 57.077 69.9481 58.3429 70.0327C59.9464 68.2551 61.2968 66.1389 64.2507 65.8003Z" fill="url(#paint4_linear)"/>
</g>
<g filter="url(#filter4_d)">
<path d="M59.8671 79.4774C62.697 79.691 64.7155 81.9242 64.478 84.9924C64.2208 88.0995 61.8856 89.9637 59.0558 89.7307C56.1863 89.5171 54.1678 87.3227 54.4053 84.2156C54.6428 81.1474 56.9977 79.2638 59.8671 79.4774ZM59.2933 86.7013C60.3223 86.779 61.1732 86.0605 61.292 84.7594C61.3909 83.4777 60.6587 82.6039 59.6297 82.5262C58.6006 82.4485 57.7101 83.1864 57.6112 84.4681C57.4924 85.7692 58.2444 86.6236 59.2933 86.7013ZM60.9753 98.5275C60.3619 99.2266 59.7286 99.5956 58.8381 99.5373C57.7695 99.4597 56.9779 98.7994 57.0373 97.8673C57.0769 97.3236 57.4133 96.8963 57.8289 96.4497L64.854 88.8762L71.3449 81.4775C71.9584 80.8173 72.6114 80.4289 73.5217 80.4872C74.5903 80.5648 75.3819 81.2251 75.3225 82.1572C75.283 82.701 74.9466 83.1282 74.531 83.5748L67.4662 91.1677L60.9753 98.5275ZM73.3238 90.2938C76.1537 90.5074 78.2118 92.7406 77.9545 95.8089C77.6973 98.9159 75.3225 100.78 72.4927 100.547C69.6628 100.334 67.6047 98.1392 67.862 95.0321C68.0995 91.9639 70.494 90.0802 73.3238 90.2938ZM72.7499 97.5177C73.779 97.5954 74.6299 96.8769 74.7487 95.5758C74.8476 94.2942 74.1154 93.4591 73.0864 93.3815C72.0573 93.3038 71.2064 94.0223 71.1074 95.304C70.9887 96.605 71.7011 97.4401 72.7499 97.5177Z" fill="url(#paint5_linear)"/>
<path d="M59.8671 79.4774C62.697 79.691 64.7155 81.9242 64.478 84.9924C64.2208 88.0995 61.8856 89.9637 59.0558 89.7307C56.1863 89.5171 54.1678 87.3227 54.4053 84.2156C54.6428 81.1474 56.9977 79.2638 59.8671 79.4774ZM59.2933 86.7013C60.3223 86.779 61.1732 86.0605 61.292 84.7594C61.3909 83.4777 60.6587 82.6039 59.6297 82.5262C58.6006 82.4485 57.7101 83.1864 57.6112 84.4681C57.4924 85.7692 58.2444 86.6236 59.2933 86.7013ZM60.9753 98.5275C60.3619 99.2266 59.7286 99.5956 58.8381 99.5373C57.7695 99.4597 56.9779 98.7994 57.0373 97.8673C57.0769 97.3236 57.4133 96.8963 57.8289 96.4497L64.854 88.8762L71.3449 81.4775C71.9584 80.8173 72.6114 80.4289 73.5217 80.4872C74.5903 80.5648 75.3819 81.2251 75.3225 82.1572C75.283 82.701 74.9466 83.1282 74.531 83.5748L67.4662 91.1677L60.9753 98.5275ZM73.3238 90.2938C76.1537 90.5074 78.2118 92.7406 77.9545 95.8089C77.6973 98.9159 75.3225 100.78 72.4927 100.547C69.6628 100.334 67.6047 98.1392 67.862 95.0321C68.0995 91.9639 70.494 90.0802 73.3238 90.2938ZM72.7499 97.5177C73.779 97.5954 74.6299 96.8769 74.7487 95.5758C74.8476 94.2942 74.1154 93.4591 73.0864 93.3815C72.0573 93.3038 71.2064 94.0223 71.1074 95.304C70.9887 96.605 71.7011 97.4401 72.7499 97.5177Z" stroke="white" stroke-width="0.5"/>
</g>
<path d="M32.7504 78.2382C31.7877 79.3034 30.4525 79.2131 29.3951 79.1005C28.4071 78.9822 27.8463 78.9614 27.3971 79.4585C26.9478 79.9557 27.1287 80.468 27.3412 81.3729C27.6284 82.3378 28.006 83.5587 26.9738 84.6295C26.011 85.6948 24.6758 85.6045 23.6184 85.4918C22.6305 85.3736 22.0697 85.3528 21.6204 85.8499C21.1711 86.347 21.352 86.8594 21.5645 87.7643C21.8517 88.7291 22.2293 89.9501 21.1971 91.0209C20.2343 92.0861 18.8992 91.9958 17.8418 91.8832C16.8538 91.765 16.293 91.7442 15.8437 92.2413C15.587 92.5253 15.0315 92.57 14.7327 92.3305C14.4339 92.0911 14.3918 91.5676 14.6486 91.2836C15.6113 90.2183 16.9465 90.3086 18.0039 90.4213C18.9919 90.5395 19.5527 90.5603 20.0019 90.0632C20.4512 89.5661 20.2703 89.0537 20.0578 88.1488C19.7706 87.184 19.393 85.963 20.4252 84.8922C21.388 83.827 22.7232 83.9173 23.7806 84.0299C24.7685 84.1481 25.3293 84.1689 25.7786 83.6718C26.2279 83.1747 26.047 82.6624 25.8345 81.7574C25.5473 80.7926 25.1697 79.5716 26.2019 78.5008C27.2288 77.3646 28.4998 77.5259 29.5572 77.6385C30.5452 77.7567 31.106 77.7776 31.5553 77.2805C31.812 76.9964 32.3675 76.9518 32.6663 77.1912C33.0398 77.4905 33.0766 77.9485 32.7504 78.2382Z" fill="white"/>
<g filter="url(#filter5_d)">
<path fill-rule="evenodd" clip-rule="evenodd" d="M131.862 94.5435L137.284 81.5016L146.358 79.8252L131.862 94.5435Z" fill="url(#paint6_linear)"/>
<path fill-rule="evenodd" clip-rule="evenodd" d="M117.562 72.0218L137.298 81.5758L131.907 94.5501L117.562 72.0218Z" fill="url(#paint7_linear)"/>
<path fill-rule="evenodd" clip-rule="evenodd" d="M146.358 79.8655L137.339 81.533L117.606 71.98L146.358 79.8655Z" fill="url(#paint8_linear)"/>
</g>
<g filter="url(#filter6_d)">
<path fill-rule="evenodd" clip-rule="evenodd" d="M9.99963 51.094L14.4926 59.0863L11.603 64.5213L9.99963 51.094Z" fill="url(#paint9_linear)"/>
<path fill-rule="evenodd" clip-rule="evenodd" d="M27.1831 52.586L14.3588 59.1709L9.90004 51.2303L27.1831 52.586Z" fill="url(#paint10_linear)"/>
<path fill-rule="evenodd" clip-rule="evenodd" d="M11.6604 64.5213L14.499 59.1869L27.1928 52.6821L11.6604 64.5213Z" fill="url(#paint11_linear)"/>
</g>
<g filter="url(#filter7_d)">
<path fill-rule="evenodd" clip-rule="evenodd" d="M14.9569 6.45308L12.879 12.779L27.2733 21.4055L14.9569 6.45308Z" fill="url(#paint12_linear)"/>
<path fill-rule="evenodd" clip-rule="evenodd" d="M1.12141 14.7225L12.8958 12.7308L14.9712 6.4188L1.12141 14.7225Z" fill="url(#paint13_linear)"/>
<path fill-rule="evenodd" clip-rule="evenodd" d="M27.2735 21.375L12.9046 12.7941L1.13692 14.7796L27.2735 21.375Z" fill="url(#paint14_linear)"/>
</g>
<path d="M40.928 22.0472L41.5963 34.0042L39.9477 34.0964L39.3569 23.5277L35.6084 23.7373L35.3238 28.9234C35.2421 30.3671 35.1113 31.4537 34.9316 32.1833C34.7512 32.9013 34.4853 33.4385 34.1338 33.7947C33.7817 34.1393 33.2535 34.4474 32.5491 34.7189L32.0782 33.457C32.5088 33.2704 32.8211 33.0441 33.0151 32.7779C33.2207 32.5111 33.3671 32.1199 33.4543 31.6044C33.5416 31.0889 33.6175 30.2664 33.682 29.1371L34.0904 22.4294L40.928 22.0472Z" fill="white"/>
<path d="M50.9989 21.4843L50.8818 22.8139L46.2482 23.0729L46.4665 26.9776L50.4926 26.7525L50.5664 28.0714L46.5402 28.2965L46.7691 32.392L51.7324 32.1146L51.8061 33.4335L45.1942 33.8031L44.5259 21.8461L50.9989 21.4843Z" fill="white"/>
<path d="M61.0001 20.9252L60.9051 22.3406L57.5905 22.5259L58.1803 33.0772L56.5317 33.1694L55.9419 22.6181L52.5405 22.8082L52.4619 21.4025L61.0001 20.9252Z" fill="white"/>
<path d="M70.3758 32.3955L70.0625 26.7901L65.0298 27.0714L65.3431 32.6768L63.6945 32.769L63.0261 20.812L64.6747 20.7198L64.9541 25.7178L69.9868 25.4365L69.7074 20.4385L71.3561 20.3464L72.0245 32.3034L70.3758 32.3955Z" fill="white"/>
<path d="M81.9912 19.7519L82.6596 31.7089L81.0109 31.801L80.7481 27.0981L78.3185 27.2339L76.2733 32.0659L74.399 32.1706L76.7228 27.0271C75.9546 26.7799 75.358 26.3839 74.9329 25.839C74.5194 25.2934 74.2914 24.6388 74.2487 23.8752C74.1834 22.7067 74.5205 21.7827 75.2601 21.103C75.999 20.4118 77.1147 20.0245 78.6072 19.941L81.9912 19.7519ZM80.6753 25.7965L80.4144 21.1282L78.7831 21.2194C77.7534 21.277 77.0182 21.5154 76.5774 21.9346C76.1481 22.3532 75.9562 22.9674 76.0014 23.7773C76.0435 24.5293 76.2892 25.0842 76.7386 25.4421C77.1996 25.7993 77.7945 25.9575 78.5234 25.9168L80.6753 25.7965Z" fill="white"/>
<path d="M92.6395 19.1567L93.3079 31.1136L91.6592 31.2058L91.3963 26.5028L88.9668 26.6386L86.9215 31.4706L85.0473 31.5754L87.371 26.4319C86.6029 26.1847 86.0062 25.7886 85.5812 25.2437C85.1677 24.6982 84.9396 24.0436 84.897 23.28C84.8316 22.1115 85.1688 21.1874 85.9084 20.5078C86.6473 19.8166 87.763 19.4292 89.2554 19.3458L92.6395 19.1567ZM91.3236 25.2013L91.0626 20.533L89.4313 20.6242C88.4017 20.6818 87.6664 20.9202 87.2256 21.3394C86.7964 21.758 86.6045 22.3722 86.6497 23.182C86.6918 23.9341 86.9375 24.489 87.3869 24.8469C87.8479 25.2041 88.4428 25.3623 89.1717 25.3216L91.3236 25.2013Z" fill="white"/>
<path d="M37.639 44.4932C39.2934 44.4008 40.597 44.6761 41.5498 45.3191C42.5135 45.95 43.0326 46.9307 43.1069 48.2611C43.1839 49.6379 42.8031 50.7153 41.9646 51.4933C41.1376 52.2707 39.9837 52.7008 38.5028 52.7836L37.3227 52.8495L37.5332 56.6154L33.9583 56.8152L33.2831 44.7367L37.639 44.4932ZM38.0151 50.2866C39.0447 50.2291 39.5272 49.6218 39.4626 48.4649C39.4037 47.412 38.8248 46.9164 37.7257 46.9778L36.9968 47.0185L37.1821 50.3332L38.0151 50.2866Z" fill="white"/>
<path d="M49.9918 55.919L49.3922 53.6023L46.5288 53.7624L46.2086 56.1304L42.4774 56.339L45.3252 44.0636L49.5943 43.825L53.775 55.7075L49.9918 55.919ZM46.8924 51.2353L48.7493 51.1315L47.5473 46.4462L46.8924 51.2353Z" fill="white"/>
<path d="M58.7025 42.9677C60.195 42.8842 61.5172 43.2862 62.6694 44.1734L61.1294 46.2092C60.7681 45.9741 60.4158 45.7965 60.0725 45.6764C59.7408 45.5557 59.3898 45.5057 59.0196 45.5264C58.3139 45.5658 57.7821 45.9147 57.4243 46.573C57.0781 47.2307 56.9399 48.1842 57.0098 49.4337C57.0796 50.6832 57.3287 51.6094 57.7569 52.2121C58.1846 52.8033 58.7628 53.0785 59.4917 53.0378C59.8851 53.0158 60.245 52.9145 60.5714 52.7337C60.9095 52.5524 61.2777 52.2881 61.6761 51.9408L63.3485 53.8319C62.8898 54.345 62.3224 54.7829 61.6463 55.1456C60.9812 55.4962 60.2552 55.6934 59.4685 55.7374C58.2769 55.804 57.2336 55.6186 56.3388 55.1812C55.4432 54.7322 54.7315 54.0408 54.2034 53.1071C53.6754 52.1733 53.3729 51.0181 53.296 49.6413C53.2222 48.3224 53.4018 47.175 53.8347 46.1992C54.267 45.2118 54.903 44.4451 55.7429 43.8991C56.5822 43.3415 57.5687 43.031 58.7025 42.9677Z" fill="white"/>
<path d="M73.5272 42.4872L74.2023 54.5656L70.6274 54.7655L70.1016 45.3595L67.3423 45.5138L67.8681 54.9197L64.2931 55.1195L63.618 43.0411L73.5272 42.4872Z" fill="white"/>
<path d="M79.5034 42.1531C81.1578 42.0606 82.4614 42.3359 83.4142 42.979C84.3779 43.6098 84.897 44.5905 84.9713 45.921C85.0483 47.2978 84.6675 48.3752 83.829 49.1532C83.002 49.9306 81.8481 50.3606 80.3672 50.4434L79.1871 50.5094L79.3976 54.2752L75.8227 54.4751L75.1475 42.3966L79.5034 42.1531ZM79.8795 47.9465C80.9091 47.8889 81.3916 47.2817 81.327 46.1247C81.2681 45.0719 80.6892 44.5762 79.5901 44.6376L78.8612 44.6784L79.0465 47.993L79.8795 47.9465Z" fill="white"/>
<path d="M91.1021 41.1566C92.9069 41.0557 94.3266 41.5392 95.3612 42.6071C96.4066 43.6628 96.9857 45.1972 97.0982 47.2103C97.1713 48.5176 97.0148 49.6637 96.6289 50.6485C96.2429 51.6334 95.6422 52.4097 94.8267 52.9776C94.0112 53.5454 93.0077 53.8626 91.816 53.9292C90.0112 54.0301 88.5857 53.5469 87.5396 52.4797C86.5044 51.4002 85.9305 49.8539 85.818 47.8408C85.7449 46.5335 85.9017 45.3932 86.2883 44.4199C86.6743 43.4351 87.2753 42.6645 88.0914 42.1083C88.9069 41.5404 89.9104 41.2232 91.1021 41.1566ZM91.2437 43.6903C90.5611 43.7284 90.0859 44.0509 89.8181 44.6578C89.5496 45.2531 89.4542 46.2449 89.5318 47.6332C89.6094 49.0216 89.8154 50.0081 90.1498 50.5929C90.4836 51.1661 90.9918 51.4337 91.6744 51.3955C92.3686 51.3567 92.8438 51.0342 93.1 50.428C93.3679 49.8211 93.4626 48.8178 93.3844 47.4179C93.3068 46.0295 93.1014 45.0545 92.7683 44.4929C92.4345 43.9197 91.9263 43.6521 91.2437 43.6903Z" fill="white"/>
<path d="M108.824 49.9494L109.144 55.6589L106.766 55.7918L106.249 52.7743L100.21 53.1118L100.033 56.1682L97.6552 56.3011L97.3361 50.5916L98.2558 50.5402C98.5346 50.13 98.7562 49.5258 98.9205 48.7274C99.0841 47.9175 99.2241 46.6852 99.3405 45.0307L99.6043 41.0295L107.188 40.6056L107.714 50.0115L108.824 49.9494ZM103.895 43.3487L102.732 43.4137L102.7 44.4077C102.632 46.0944 102.467 47.3918 102.204 48.3001C101.942 49.2084 101.551 49.9034 101.032 50.385L104.278 50.2036L103.895 43.3487Z" fill="white"/>
<path d="M116.085 52.2245L115.485 49.9079L112.622 50.0679L112.301 52.436L108.57 52.6445L111.418 40.3691L115.687 40.1305L119.868 52.013L116.085 52.2245ZM112.985 47.5408L114.842 47.437L113.64 42.7517L112.985 47.5408Z" fill="white"/>
<path d="M135.414 39.0278L132.816 44.5522L136.402 51.0888L132.566 51.3032L130.028 46.3792L129.178 46.4268L129.46 51.4768L126.232 51.6573L125.95 46.6072L125.065 46.6567L123.056 51.8348L119.29 52.0453L122.126 45.1498L118.928 39.9494L122.364 39.7573L125.034 44.2386L125.815 44.195L125.557 39.5788L128.785 39.3984L129.043 44.0146L129.824 43.9709L132.013 39.2179L135.414 39.0278Z" fill="white"/>
<path d="M143.347 50.7006L142.747 48.384L139.884 48.544L139.563 50.9121L135.832 51.1206L138.68 38.8452L142.949 38.6066L147.13 50.4891L143.347 50.7006ZM140.247 46.0169L142.104 45.9131L140.902 41.2278L140.247 46.0169Z" fill="white"/>
</g>
<defs>
<filter id="filter0_d" x="2.17365" y="-5" width="167.74" height="111.437" filterUnits="userSpaceOnUse" color-interpolation-filters="sRGB">
<feFlood flood-opacity="0" result="BackgroundImageFix"/>
<feColorMatrix in="SourceAlpha" type="matrix" values="0 0 0 0 0 0 0 0 0 0 0 0 0 0 0 0 0 0 127 0"/>
<feOffset dy="5"/>
<feGaussianBlur stdDeviation="5"/>
<feColorMatrix type="matrix" values="0 0 0 0 0.596078 0 0 0 0 0.14902 0 0 0 0 0.603922 0 0 0 0.5 0"/>
<feBlend mode="normal" in2="BackgroundImageFix" result="effect1_dropShadow"/>
<feBlend mode="normal" in="SourceGraphic" in2="effect1_dropShadow" result="shape"/>
</filter>
<filter id="filter1_d" x="8.17365" y="0" width="155.74" height="99.4368" filterUnits="userSpaceOnUse" color-interpolation-filters="sRGB">
<feFlood flood-opacity="0" result="BackgroundImageFix"/>
<feColorMatrix in="SourceAlpha" type="matrix" values="0 0 0 0 0 0 0 0 0 0 0 0 0 0 0 0 0 0 127 0"/>
<feOffset dy="4"/>
<feGaussianBlur stdDeviation="2"/>
<feColorMatrix type="matrix" values="0 0 0 0 0.760718 0 0 0 0 0.0766667 0 0 0 0 0.766667 0 0 0 1 0"/>
<feBlend mode="normal" in2="BackgroundImageFix" result="effect1_dropShadow"/>
<feBlend mode="normal" in="SourceGraphic" in2="effect1_dropShadow" result="shape"/>
</filter>
<filter id="filter2_d" x="31.97" y="62.0419" width="67.1776" height="68.4191" filterUnits="userSpaceOnUse" color-interpolation-filters="sRGB">
<feFlood flood-opacity="0" result="BackgroundImageFix"/>
<feColorMatrix in="SourceAlpha" type="matrix" values="0 0 0 0 0 0 0 0 0 0 0 0 0 0 0 0 0 0 127 0"/>
<feOffset dy="5"/>
<feGaussianBlur stdDeviation="5"/>
<feColorMatrix type="matrix" values="0 0 0 0 0.498039 0 0 0 0 0.0431373 0 0 0 0 0.560784 0 0 0 0.5 0"/>
<feBlend mode="normal" in2="BackgroundImageFix" result="effect1_dropShadow"/>
<feBlend mode="normal" in="SourceGraphic" in2="effect1_dropShadow" result="shape"/>
</filter>
<filter id="filter3_i" x="41.97" y="65.8003" width="47.1776" height="48.4191" filterUnits="userSpaceOnUse" color-interpolation-filters="sRGB">
<feFlood flood-opacity="0" result="BackgroundImageFix"/>
<feBlend mode="normal" in="SourceGraphic" in2="BackgroundImageFix" result="shape"/>
<feColorMatrix in="SourceAlpha" type="matrix" values="0 0 0 0 0 0 0 0 0 0 0 0 0 0 0 0 0 0 127 0" result="hardAlpha"/>
<feOffset/>
<feGaussianBlur stdDeviation="1"/>
<feComposite in2="hardAlpha" operator="arithmetic" k2="-1" k3="1"/>
<feColorMatrix type="matrix" values="0 0 0 0 1 0 0 0 0 1 0 0 0 0 1 0 0 0 0.35 0"/>
<feBlend mode="normal" in2="shape" result="effect1_innerShadow"/>
</filter>
<filter id="filter4_d" x="52.1364" y="79.2109" width="28.0899" height="25.6057" filterUnits="userSpaceOnUse" color-interpolation-filters="sRGB">
<feFlood flood-opacity="0" result="BackgroundImageFix"/>
<feColorMatrix in="SourceAlpha" type="matrix" values="0 0 0 0 0 0 0 0 0 0 0 0 0 0 0 0 0 0 127 0"/>
<feOffset dy="2"/>
<feGaussianBlur stdDeviation="1"/>
<feColorMatrix type="matrix" values="0 0 0 0 0 0 0 0 0 0 0 0 0 0 0 0 0 0 0.25 0"/>
<feBlend mode="normal" in2="BackgroundImageFix" result="effect1_dropShadow"/>
<feBlend mode="normal" in="SourceGraphic" in2="effect1_dropShadow" result="shape"/>
</filter>
<filter id="filter5_d" x="111.562" y="71.98" width="40.796" height="36.5701" filterUnits="userSpaceOnUse" color-interpolation-filters="sRGB">
<feFlood flood-opacity="0" result="BackgroundImageFix"/>
<feColorMatrix in="SourceAlpha" type="matrix" values="0 0 0 0 0 0 0 0 0 0 0 0 0 0 0 0 0 0 127 0"/>
<feOffset dy="8"/>
<feGaussianBlur stdDeviation="3"/>
<feColorMatrix type="matrix" values="0 0 0 0 0 0 0 0 0 0 0 0 0 0 0 0 0 0 0.1 0"/>
<feBlend mode="normal" in2="BackgroundImageFix" result="effect1_dropShadow"/>
<feBlend mode="normal" in="SourceGraphic" in2="effect1_dropShadow" result="shape"/>
</filter>
<filter id="filter6_d" x="3.90004" y="51.094" width="29.2928" height="27.4273" filterUnits="userSpaceOnUse" color-interpolation-filters="sRGB">
<feFlood flood-opacity="0" result="BackgroundImageFix"/>
<feColorMatrix in="SourceAlpha" type="matrix" values="0 0 0 0 0 0 0 0 0 0 0 0 0 0 0 0 0 0 127 0"/>
<feOffset dy="8"/>
<feGaussianBlur stdDeviation="3"/>
<feColorMatrix type="matrix" values="0 0 0 0 0 0 0 0 0 0 0 0 0 0 0 0 0 0 0.1 0"/>
<feBlend mode="normal" in2="BackgroundImageFix" result="effect1_dropShadow"/>
<feBlend mode="normal" in="SourceGraphic" in2="effect1_dropShadow" result="shape"/>
</filter>
<filter id="filter7_d" x="-4.8786" y="6.41882" width="38.152" height="28.9868" filterUnits="userSpaceOnUse" color-interpolation-filters="sRGB">
<feFlood flood-opacity="0" result="BackgroundImageFix"/>
<feColorMatrix in="SourceAlpha" type="matrix" values="0 0 0 0 0 0 0 0 0 0 0 0 0 0 0 0 0 0 127 0"/>
<feOffset dy="8"/>
<feGaussianBlur stdDeviation="3"/>
<feColorMatrix type="matrix" values="0 0 0 0 0 0 0 0 0 0 0 0 0 0 0 0 0 0 0.2 0"/>
<feBlend mode="normal" in2="BackgroundImageFix" result="effect1_dropShadow"/>
<feBlend mode="normal" in="SourceGraphic" in2="effect1_dropShadow" result="shape"/>
</filter>
<linearGradient id="paint0_linear" x1="160.535" y1="22.968" x2="20.2435" y2="89.3891" gradientUnits="userSpaceOnUse">
<stop stop-color="#99269A"/>
<stop offset="1" stop-color="#4F20A3"/>
</linearGradient>
<linearGradient id="paint1_linear" x1="160.535" y1="22.968" x2="20.2435" y2="89.3891" gradientUnits="userSpaceOnUse">
<stop stop-color="#99269A"/>
<stop offset="1" stop-color="#4F20A3"/>
</linearGradient>
<linearGradient id="paint2_linear" x1="37.6247" y1="67.0418" x2="172.329" y2="-6.82833" gradientUnits="userSpaceOnUse">
<stop stop-color="#D63C4E"/>
<stop offset="1" stop-color="#F8A03E"/>
</linearGradient>
<linearGradient id="paint3_linear" x1="51.9021" y1="108.633" x2="84.8023" y2="76.974" gradientUnits="userSpaceOnUse">
<stop stop-color="#3A107F"/>
<stop offset="1" stop-color="#B12B99"/>
</linearGradient>
<linearGradient id="paint4_linear" x1="51.9021" y1="107.391" x2="84.8023" y2="75.7324" gradientUnits="userSpaceOnUse">
<stop stop-color="#4F20A3"/>
<stop offset="1" stop-color="#B22897"/>
</linearGradient>
<linearGradient id="paint5_linear" x1="66.1813" y1="83.4183" x2="66.1813" y2="96.6094" gradientUnits="userSpaceOnUse">
<stop stop-color="white"/>
<stop offset="0.489583" stop-color="white"/>
<stop offset="0.489683" stop-color="#E6D8FF"/>
<stop offset="1" stop-color="#E4D6FF"/>
</linearGradient>
<linearGradient id="paint6_linear" x1="135.786" y1="82.951" x2="143.999" y2="93.5642" gradientUnits="userSpaceOnUse">
<stop stop-color="#EA7900"/>
<stop offset="1" stop-color="#EA7900"/>
</linearGradient>
<linearGradient id="paint7_linear" x1="131.07" y1="76.5671" x2="121.852" y2="86.3862" gradientUnits="userSpaceOnUse">
<stop stop-color="#F9B000"/>
<stop offset="1" stop-color="#F59300"/>
</linearGradient>
<linearGradient id="paint8_linear" x1="122.035" y1="67.057" x2="137.53" y2="80.8667" gradientUnits="userSpaceOnUse">
<stop stop-color="#FFE161"/>
<stop offset="1" stop-color="#FFF3BF"/>
</linearGradient>
<linearGradient id="paint9_linear" x1="12.1717" y1="56.8278" x2="2.31774" y2="63.8739" gradientUnits="userSpaceOnUse">
<stop stop-color="#9E3AC3"/>
<stop offset="1" stop-color="#6A07A8"/>
</linearGradient>
<linearGradient id="paint10_linear" x1="23.913" y1="48.0074" x2="12.2711" y2="56.3223" gradientUnits="userSpaceOnUse">
<stop stop-color="#CD81DF"/>
<stop offset="1" stop-color="#F3BFFF"/>
</linearGradient>
<linearGradient id="paint11_linear" x1="26.7179" y1="52.0185" x2="10.8645" y2="63.3629" gradientUnits="userSpaceOnUse">
<stop stop-color="#852CAF"/>
<stop offset="1" stop-color="#571D73"/>
</linearGradient>
<linearGradient id="paint12_linear" x1="11.1293" y1="7.92759" x2="28.684" y2="18.6555" gradientUnits="userSpaceOnUse">
<stop stop-color="#FFF8D9"/>
<stop offset="0.5758" stop-color="#FFE781"/>
<stop offset="1" stop-color="#FFE161"/>
</linearGradient>
<linearGradient id="paint13_linear" x1="1.06083" y1="10.7207" x2="15.052" y2="10.5089" gradientUnits="userSpaceOnUse">
<stop stop-color="#FFAE00"/>
<stop offset="1" stop-color="#FF8800"/>
</linearGradient>
<linearGradient id="paint14_linear" x1="13.7052" y1="20.5838" x2="15.0563" y2="13.4059" gradientUnits="userSpaceOnUse">
<stop stop-color="#FFAE00"/>
<stop offset="1" stop-color="#F56E00"/>
</linearGradient>
<clipPath id="clip0">
<rect width="160" height="130" fill="white"/>
</clipPath>
</defs>
</svg>
