<svg width="48" height="48" viewBox="0 0 48 48" fill="none" xmlns="http://www.w3.org/2000/svg"><g filter="url(#a)"><circle cx="24" cy="24" r="24" fill="url(#b)"/></g><path d="M24 13c-6.065 0-11 4.935-11 11 0 2.134.612 4.192 1.773 5.978l-1.714 4a.734.734 0 0 0 .963.963l4-1.715A10.912 10.912 0 0 0 24 35c6.065 0 11-4.935 11-11s-4.935-11-11-11Zm5.647 14.938s-.915 1.173-1.577 1.447c-1.68.695-4.052 0-6.754-2.702-2.7-2.701-3.397-5.074-2.7-6.754.273-.661 1.447-1.575 1.447-1.575a.854.854 0 0 1 1.097.068l1.327 1.328a.735.735 0 0 1 0 1.036l-.834.832s-.337 1.012 1.69 3.04c2.025 2.025 3.038 1.688 3.038 1.688l.832-.833a.735.735 0 0 1 1.037 0l1.328 1.327a.855.855 0 0 1 .067 1.097l.002.001Z" fill="#fff"/><defs><linearGradient id="b" x1="24" y1="0" x2="24" y2="48" gradientUnits="userSpaceOnUse"><stop stop-color="#50CE5E"/><stop offset="1" stop-color="#29AF3E"/></linearGradient><filter id="a" x="0" y="0" width="48" height="48" filterUnits="userSpaceOnUse" color-interpolation-filters="sRGB"><feFlood flood-opacity="0" result="BackgroundImageFix"/><feBlend in="SourceGraphic" in2="BackgroundImageFix" result="shape"/><feColorMatrix in="SourceAlpha" values="0 0 0 0 0 0 0 0 0 0 0 0 0 0 0 0 0 0 127 0" result="hardAlpha"/><feOffset/><feGaussianBlur stdDeviation="4"/><feComposite in2="hardAlpha" operator="arithmetic" k2="-1" k3="1"/><feColorMatrix values="0 0 0 0 1 0 0 0 0 1 0 0 0 0 1 0 0 0 0.32 0"/><feBlend in2="shape" result="effect1_innerShadow_6264_4301"/></filter></defs></svg>