<svg width="48" height="48" viewBox="0 0 48 48" fill="none" xmlns="http://www.w3.org/2000/svg"><g filter="url(#a)"><circle cx="24" cy="24" r="24" fill="url(#b)"/></g><path d="m13.485 23.378 5.06 1.59 12.014-6.795c.175-.098.353.12.203.249l-9.096 7.744-.337 4.336a.337.337 0 0 0 .053.208c.04.063.1.112.17.143a.416.416 0 0 0 .435-.069l2.8-2.548 5.12 3.585c.552.387 1.35.114 1.5-.51l3.564-14.974c.204-.854-.702-1.575-1.584-1.263l-19.927 7.06c-.626.221-.609 1.045.025 1.244Z" fill="#fff"/><defs><linearGradient id="b" x1="24" y1="0" x2="24" y2="48" gradientUnits="userSpaceOnUse"><stop stop-color="#2AABEE"/><stop offset="1" stop-color="#239FDB"/></linearGradient><filter id="a" x="0" y="0" width="48" height="48" filterUnits="userSpaceOnUse" color-interpolation-filters="sRGB"><feFlood flood-opacity="0" result="BackgroundImageFix"/><feBlend in="SourceGraphic" in2="BackgroundImageFix" result="shape"/><feColorMatrix in="SourceAlpha" values="0 0 0 0 0 0 0 0 0 0 0 0 0 0 0 0 0 0 127 0" result="hardAlpha"/><feOffset/><feGaussianBlur stdDeviation="4"/><feComposite in2="hardAlpha" operator="arithmetic" k2="-1" k3="1"/><feColorMatrix values="0 0 0 0 1 0 0 0 0 1 0 0 0 0 1 0 0 0 0.32 0"/><feBlend in2="shape" result="effect1_innerShadow_6264_4292"/></filter></defs></svg>