<svg width="40" height="40" viewBox="0 0 40 40" fill="none" xmlns="http://www.w3.org/2000/svg">
<rect width="40" height="40" rx="20" fill="white"/>
<path fill-rule="evenodd" clip-rule="evenodd" d="M20.4925 20.2525C21.3143 20.276 22.1244 20.0537 22.8192 19.6142C23.5139 19.1746 24.0617 18.5378 24.3925 17.7852C24.7232 17.0325 24.8219 16.1983 24.6758 15.3893C24.5298 14.5802 24.1456 13.8332 23.5726 13.2437C22.9995 12.6542 22.2636 12.2491 21.459 12.0803C20.6544 11.9114 19.8178 11.9865 19.0561 12.2958C18.2944 12.6052 17.6423 13.1348 17.1833 13.8168C16.7243 14.4989 16.4793 15.3024 16.4795 16.1245C16.4654 17.2037 16.88 18.2445 17.6323 19.0184C18.3847 19.7923 19.4133 20.2362 20.4925 20.2525V20.2525ZM20.4925 14.4145C20.8326 14.405 21.1678 14.4971 21.4553 14.6791C21.7427 14.8611 21.9694 15.1247 22.1062 15.4362C22.243 15.7477 22.2838 16.0929 22.2233 16.4277C22.1629 16.7625 22.0039 17.0717 21.7668 17.3156C21.5297 17.5596 21.2251 17.7273 20.8922 17.7973C20.5592 17.8672 20.213 17.8363 19.8977 17.7084C19.5824 17.5805 19.3125 17.3615 19.1224 17.0793C18.9323 16.7972 18.8307 16.4647 18.8305 16.1245C18.8247 15.6775 18.9963 15.2464 19.3079 14.9258C19.6195 14.6052 20.0455 14.4214 20.4925 14.4145ZM22.1155 23.6215C22.9437 23.4266 23.7322 23.0907 24.4465 22.6285C24.7118 22.4519 24.8984 22.1794 24.967 21.8682C25.0356 21.557 24.981 21.2313 24.8146 20.9595C24.7352 20.8258 24.6297 20.7095 24.5043 20.6176C24.3789 20.5256 24.2363 20.46 24.0849 20.4245C23.9335 20.389 23.7766 20.3844 23.6234 20.4111C23.4703 20.4377 23.324 20.495 23.1935 20.5795C22.389 21.0995 21.4515 21.3761 20.4935 21.3761C19.5356 21.3761 18.5981 21.0995 17.7936 20.5795C17.6631 20.495 17.517 20.4378 17.3639 20.4111C17.2108 20.3845 17.0539 20.3891 16.9026 20.4246C16.7513 20.4601 16.6088 20.5257 16.4835 20.6177C16.3582 20.7096 16.2528 20.8258 16.1735 20.9595C16.0071 21.2313 15.9525 21.557 16.0211 21.8682C16.0897 22.1794 16.2762 22.4519 16.5415 22.6285C17.2556 23.0904 18.0437 23.4263 18.8715 23.6215L16.6285 25.9295C16.4076 26.1595 16.2842 26.4661 16.2842 26.785C16.2842 27.1039 16.4076 27.4105 16.6285 27.6405C16.7362 27.7524 16.8653 27.8414 17.0082 27.9022C17.1511 27.963 17.3048 27.9943 17.46 27.9943C17.6153 27.9943 17.769 27.963 17.9119 27.9022C18.0547 27.8414 18.1839 27.7524 18.2915 27.6405L20.4916 25.3725L22.6975 27.6405C22.805 27.7526 22.934 27.8418 23.0768 27.9028C23.2196 27.9637 23.3733 27.9951 23.5285 27.9951C23.6838 27.9951 23.8375 27.9637 23.9803 27.9028C24.1231 27.8418 24.2521 27.7526 24.3595 27.6405C24.5809 27.4107 24.7046 27.1041 24.7046 26.785C24.7046 26.4659 24.5809 26.1593 24.3595 25.9295L22.1155 23.6215Z" fill="#666666"/>
</svg>
