<svg width="162" height="32" viewBox="0 0 162 32" fill="none" xmlns="http://www.w3.org/2000/svg"><path fill-rule="evenodd" clip-rule="evenodd" d="M9.19537 0.132421C7.01831 -0.447981 4.80373 0.932405 4.35133 3.1536L3.19162 8.82742H13.3078V8.82963L13.4733 8.82742L14.9343 8.82963C16.2474 8.86493 17.1963 9.34824 17.428 10.882L18.1563 17.6802C18.2975 19.0065 18.6528 19.0518 19.3745 17.6802C20.0961 16.3086 22.8293 10.8809 22.8293 10.8809C23.4307 9.82602 24.1931 9.26327 25.045 9.00507L25.1973 8.25695C25.6198 6.21213 24.3771 4.19187 22.3614 3.64683L9.19537 0.133525V0.132421ZM10.7931 9.93084H2.96653L2.74143 11.0343H10.333L10.344 10.9813C10.4345 10.5532 10.5923 10.2089 10.7931 9.93084ZM2.51633 12.1377L2.29123 13.2411H9.86956L10.1013 12.1377H2.51633ZM9.63894 14.3445H2.06613L1.84103 15.448H9.40833L9.63894 14.3445ZM1.61593 16.5514L1.39083 17.6548H8.89413V17.902L9.17661 16.5514H1.61593ZM8.71537 18.7583H1.16463L0.828086 20.4134H8.3689L8.71648 18.7583H8.71537ZM0.265339 23.172L0.147272 23.7424C-0.275261 25.7872 0.967453 27.8075 2.98308 28.3525L16.1503 31.867C18.3273 32.4474 20.5408 31.067 20.9954 28.8458L23.6878 15.6521L20.6423 21.3976C20.052 22.426 19.5532 23.1091 18.1364 23.1675C18.0702 23.1709 17.7922 23.172 17.7215 23.172C16.126 23.172 15.6802 22.4757 15.5224 21.3965L14.6993 14.0036C14.6033 13.4022 14.2314 13.4199 14.1255 14.0036L12.3578 23.1675L8.89413 23.172H0.265339Z" fill="#1CA345"></path><path fill-rule="evenodd" clip-rule="evenodd" d="M50.2968 13.4263C50.1997 13.4263 50.0652 13.617 49.9116 13.8835L45.4945 21.5372C44.8969 22.5654 44.3953 23.2323 42.8714 23.2323C41.3293 23.2323 41.117 22.5654 40.9633 21.5372L39.8428 13.8835C39.8054 13.6549 39.767 13.4274 39.6507 13.4274C39.4575 13.4274 39.3807 13.7508 39.3615 13.8456L37.4715 23.0795H34L36.4684 11.6564C36.8547 9.86653 38.4747 9.6 39.497 9.6C40.847 9.6 41.8299 10.0383 42.0614 11.5606L43.2193 19.2532C43.2577 19.4997 43.3346 19.8052 43.4893 19.8052C43.643 19.8052 43.8169 19.5008 43.9514 19.2532L48.3674 11.5606C49.236 10.0572 50.4515 9.6 51.7823 9.6C53.6339 9.6 54.3083 10.3048 54.3083 11.1423C54.3083 11.314 54.2891 11.4847 54.2507 11.6564L51.7823 23.0795H48.3097L50.4121 13.8456C50.4323 13.7697 50.4323 13.7129 50.4323 13.6549C50.4323 13.5032 50.3736 13.4263 50.2968 13.4263ZM64.2309 21.1632L63.7688 23.2955H57.9826C55.5142 23.2955 54.4534 22.3052 54.4534 20.2108C54.4534 19.525 54.6712 18.1102 54.8835 17.1968C55.8098 13.1798 57.0243 12.6467 60.9974 12.6467C63.8713 12.6467 65.7025 13.3125 65.7025 15.6924C65.7025 16.0917 65.6257 16.5678 65.5104 17.0819C65.2596 18.225 64.7197 18.796 63.4657 18.796H57.6987C57.6422 19.0625 57.5386 19.7547 57.5386 19.9633C57.5386 20.7439 57.9634 21.1632 59.2557 21.1632H64.2309ZM58.1427 16.7396C58.4714 15.2541 59.165 14.779 60.7274 14.779C61.595 14.779 62.6173 15.0455 62.6173 15.8641C62.6173 15.9389 62.5986 16.0322 62.5797 16.1267L62.5797 16.1267L62.5789 16.1306C62.5213 16.3782 62.4242 16.7396 61.8852 16.7396H58.1427ZM66.6299 17.4254C67.2851 14.3787 68.4238 12.7605 71.8953 12.7605V12.7615H76.0413C77.1021 12.7615 77.6229 13.3705 77.6229 14.189C77.6229 14.3418 77.6036 14.4945 77.5652 14.6652L75.9004 22.44C75.2249 25.5426 73.8365 26.6667 70.5582 26.6667H65.4283L65.8903 24.5702H70.5005C71.4845 24.5702 72.3126 24.2858 72.7181 23.2955H69.8442C67.2211 23.2955 66.3535 21.7911 66.3535 19.6209C66.3535 19.0688 66.4954 18.0343 66.6299 17.4254ZM73.1813 21.1063H70.9626C69.7674 21.1063 69.4398 20.4584 69.4398 19.6019C69.4398 19.1826 69.5998 18.2819 69.6959 17.8057C70.0438 16.2444 70.5069 14.9507 72.3201 14.9507H73.7277C74.1908 14.9507 74.3829 15.0645 74.3829 15.4069C74.3829 15.4867 74.3693 15.5666 74.3535 15.659L74.3445 15.7124L73.1813 21.1063ZM79.8404 14.8928L80.3025 12.7605H86.6095C88.3266 12.7605 89.1558 13.8077 89.1558 15.1793C89.1558 15.4411 89.1297 15.7022 89.0779 15.9589L87.9339 21.3918C87.6639 22.6286 87.0279 23.2955 85.5808 23.2955H80.2385C78.7348 23.2955 77.9046 22.3241 77.9046 20.8208C77.9046 20.4963 78.0273 19.6145 78.0849 19.2342C78.4136 17.3105 79.4733 16.5489 81.3057 16.5489H85.9543L86.0503 16.1117C86.0542 16.0846 86.0582 16.0591 86.0619 16.0347C86.0766 15.9391 86.0887 15.8597 86.0887 15.7682C86.0887 15.1983 85.7024 14.8928 85.0088 14.8928H79.8404ZM85.5103 18.6053L85.0984 20.5732C84.9832 21.0484 84.7516 21.239 84.2692 21.239H81.7048C81.2224 21.239 80.9909 20.9725 80.9909 20.5353C80.9909 20.3826 81.1125 19.6525 81.1712 19.4428C81.3633 18.7581 81.7112 18.6053 82.2896 18.6053H85.5103ZM93.7969 25.276C95.1661 25.276 96.3624 24.704 96.8053 23.2955H93.6827C91.0788 23.2955 90.1782 21.671 90.1782 19.6525C90.1782 19.0436 90.2753 18.3577 90.4289 17.615C91.1045 14.4745 92.1844 12.7605 95.752 12.7605H98.1243C99.533 12.7605 100.401 13.0839 100.401 14.0552C100.401 14.188 100.381 14.3407 100.343 14.5125L98.6579 22.3241C98.0208 25.275 96.9216 26.5697 93.528 26.5697H89.2657L89.5357 25.276H93.7969ZM97.1148 22.0007H94.0861C92.3509 22.0007 91.875 20.9093 91.875 19.6725C91.875 19.1573 91.971 18.5294 92.1257 17.8057C92.6273 15.4258 93.3402 14.0552 95.7904 14.0552H98.0848C98.5096 14.0552 98.6825 14.208 98.6825 14.5125C98.6825 14.5883 98.6825 14.6642 98.6632 14.74L97.1148 22.0007ZM102.283 23.2955H100.663H100.662L102.135 16.3972C102.675 13.9025 103.967 12.7605 106.686 12.7605H107.806L107.536 14.0552H106.705C104.932 14.0552 104.083 14.9497 103.678 16.7964L102.283 23.2955ZM113.765 12.6467C110.1 12.6467 108.359 14.2143 107.529 18.0217C107.39 18.6276 107.318 19.247 107.317 19.8684C107.317 22.3621 108.841 23.4092 111.849 23.4092C115.514 23.4092 117.192 22.2293 118.021 18.402C118.174 17.7172 118.316 16.6637 118.316 16.1306C118.316 13.6549 116.773 12.6467 113.765 12.6467ZM113.688 13.9404C111.084 13.9404 109.843 15.3563 109.226 18.2123C109.091 18.8402 109.014 19.3733 109.014 19.8305C109.014 21.4677 109.921 22.1145 111.945 22.1145C114.549 22.1145 115.706 21.0673 116.324 18.2123C116.458 17.5834 116.62 16.6068 116.62 16.1496C116.62 14.5304 115.712 13.9404 113.688 13.9404ZM129.868 12.7605H128.249L126.41 21.3539C126.295 21.868 126.063 22.0007 125.678 22.0007H122.765C121.55 22.0007 121.106 21.4487 121.106 20.5543C121.106 20.3067 121.145 20.0402 121.203 19.7357L122.694 12.7605H121.074L119.525 20.0212C119.466 20.3031 119.434 20.5898 119.428 20.8777C119.428 22.4579 120.566 23.2955 122.457 23.2955H126.044C127.355 23.2955 127.741 22.7055 127.972 21.6394L129.868 12.7605ZM134.549 23.2955H131.424L130.731 26.5318H129.13L131.72 14.3407C131.971 13.1987 132.549 12.7605 133.746 12.7605H136.619C139.165 12.7605 140.149 13.9984 140.149 16.0158C140.141 16.6696 140.064 17.3208 139.917 17.9585C139.158 21.5435 138.021 23.2955 134.549 23.2955ZM133.282 14.6463C133.378 14.188 133.629 14.0552 134.016 14.0552H136.252C137.95 14.0552 138.451 14.779 138.451 15.9589C138.44 16.5683 138.363 17.1748 138.22 17.7678C137.674 20.4015 136.998 22.0007 134.549 22.0007H131.714L133.282 14.6452V14.6463ZM143.383 21.239L142.939 23.2955V23.2965H141.184L141.628 21.239H143.383ZM144.809 23.2955H146.429L147.825 16.7964C148.229 14.9497 149.078 14.0552 150.852 14.0552H151.681L151.951 12.7605H150.833C148.114 12.7605 146.822 13.9025 146.282 16.3972L144.809 23.2955ZM160.38 12.7605H162L160.104 21.6394C159.872 22.7055 159.486 23.2955 158.174 23.2955H154.587C152.697 23.2955 151.56 22.4579 151.56 20.8777C151.56 20.6112 151.598 20.3257 151.656 20.0212L153.205 12.7605H154.825L153.333 19.7357C153.276 20.0402 153.237 20.3067 153.237 20.5543C153.237 21.4487 153.681 22.0007 154.896 22.0007H157.808C158.193 22.0007 158.425 21.868 158.541 21.3539L160.38 12.7605Z" fill="#323232"></path></svg>