<svg width="40" height="40" viewBox="0 0 40 40" fill="none" xmlns="http://www.w3.org/2000/svg">
<rect width="40" height="40" rx="20" fill="white"/>
<path fill-rule="evenodd" clip-rule="evenodd" d="M11.1683 20.0269C15.7302 18.0512 18.7722 16.7486 20.2942 16.1194C24.6399 14.3226 25.543 14.0104 26.1315 14.0001C26.261 13.9979 26.5504 14.0298 26.7379 14.181C27.016 14.4053 27.0176 14.8923 26.9867 15.2146C26.7512 17.6743 25.7322 23.6433 25.2138 26.3983C24.9944 27.5639 24.5625 27.9548 24.1444 27.9931C23.2357 28.0762 22.5456 27.3961 21.6654 26.8226C20.2882 25.9251 19.5101 25.3664 18.1732 24.4907C16.6282 23.4786 17.6297 22.9224 18.5102 22.0133C18.7407 21.7754 22.7446 18.1551 22.8221 17.8267C22.8318 17.7856 22.8408 17.6325 22.7493 17.5517C22.6578 17.4709 22.5227 17.4985 22.4253 17.5205C22.2872 17.5516 20.0869 18.9973 15.8247 21.8573C15.2001 22.2836 14.6345 22.4913 14.1276 22.4804C13.5689 22.4685 12.4941 22.1664 11.6951 21.9082C10.7152 21.5916 9.93627 21.4241 10.0041 20.8864C10.0395 20.6062 10.4275 20.3197 11.1683 20.0269V20.0269Z" fill="#666666"/>
</svg>
