<svg width="40" height="40" viewBox="0 0 40 40" fill="none" xmlns="http://www.w3.org/2000/svg">
<rect width="40" height="40" rx="20" fill="white"/>
<path fill-rule="evenodd" clip-rule="evenodd" d="M19.702 15.001C19.0275 14.933 18.3461 15.0073 17.702 15.219C17.427 15.363 17.218 15.689 17.346 15.705C17.6261 15.7366 17.8823 15.8774 18.059 16.097C18.2255 16.4669 18.3065 16.8695 18.296 17.275C18.296 17.275 18.433 19.525 17.962 19.808C17.638 20 17.195 19.608 16.237 17.82C15.9123 17.1922 15.6257 16.5454 15.379 15.883C15.3363 15.7727 15.2677 15.6743 15.179 15.596C15.0685 15.5161 14.9425 15.4602 14.809 15.432L12.522 15.447C12.3517 15.4502 12.1876 15.5116 12.057 15.621C12.0262 15.69 12.0095 15.7645 12.0079 15.8401C12.0064 15.9157 12.02 15.9908 12.048 16.061C12.048 16.061 13.837 20.604 15.864 22.893C16.3427 23.4887 16.9455 23.9729 17.6305 24.3118C18.3154 24.6506 19.0661 24.836 19.83 24.855H20.788C20.9502 24.8358 21.1021 24.7658 21.222 24.655C21.3115 24.52 21.3579 24.361 21.355 24.199C21.355 24.199 21.336 22.808 21.93 22.599C22.524 22.39 23.267 23.946 24.066 24.54C24.2112 24.6676 24.3806 24.7646 24.5641 24.825C24.7476 24.8855 24.9415 24.9083 25.134 24.892L27.27 24.857C27.3947 24.8694 27.5203 24.8454 27.6316 24.7878C27.7429 24.7302 27.835 24.6415 27.8969 24.5325C27.9587 24.4236 27.9876 24.299 27.98 24.1739C27.9724 24.0488 27.9286 23.9287 27.854 23.828C27.4425 23.0791 26.9073 22.4053 26.271 21.835C24.928 20.488 25.107 20.706 26.722 18.373C27.703 16.951 28.096 16.083 27.973 15.707C27.8676 15.5946 27.7346 15.5116 27.5873 15.4664C27.44 15.4211 27.2834 15.4151 27.133 15.449L24.727 15.464C24.62 15.451 24.5115 15.472 24.417 15.524C24.3248 15.5992 24.2527 15.6961 24.207 15.806C23.9576 16.5043 23.6602 17.1846 23.317 17.842C22.249 19.813 21.817 19.922 21.642 19.799C21.235 19.512 21.336 18.649 21.336 18.04C21.336 16.123 21.606 15.33 20.816 15.122C20.4529 15.0259 20.0773 14.9851 19.702 15.001V15.001Z" fill="#666666"/>
</svg>
