<svg width="14" height="15" viewBox="0 0 14 15" fill="none" xmlns="http://www.w3.org/2000/svg">
<path d="M7.00067 14.7998C10.8667 14.7998 14.0007 11.6658 14.0007 7.7998C14.0007 3.93381 10.8667 0.799805 7.00067 0.799805C3.13468 0.799805 0.000671387 3.93381 0.000671387 7.7998C0.000671387 11.6658 3.13468 14.7998 7.00067 14.7998Z" fill="white"/>
<path fill-rule="evenodd" clip-rule="evenodd" d="M14.0007 7.7998C14.0007 11.6658 10.8667 14.7998 7.00067 14.7998C3.13468 14.7998 0.000671387 11.6658 0.000671387 7.7998C0.000671387 3.93381 3.13468 0.799805 7.00067 0.799805C7.75601 0.799805 8.4834 0.91944 9.16494 1.1408L7.56951 6.0498H2.91035L2.34101 7.7998H7.00076L5.63576 11.9998H7.56076L8.92576 7.7998H14.0007ZM13.7801 6.0498H9.49451L10.8304 1.93939C12.2691 2.8815 13.3398 4.33911 13.7801 6.0498Z" fill="url(#paint0_linear_176_494)"/>
<defs>
<linearGradient id="paint0_linear_176_494" x1="0.000671331" y1="6.86647" x2="14.0007" y2="6.86647" gradientUnits="userSpaceOnUse">
<stop stop-color="#FF5C4D"/>
<stop offset="0.4" stop-color="#EB469F"/>
<stop offset="1" stop-color="#8341EF"/>
</linearGradient>
</defs>
</svg>
