<svg width="40" height="40" viewBox="0 0 40 40" fill="none" xmlns="http://www.w3.org/2000/svg">
<rect width="40" height="40" rx="20" fill="white"/>
<path fill-rule="evenodd" clip-rule="evenodd" d="M27.7258 16.7768C27.6332 16.3714 27.4172 16.0046 27.1076 15.7271C26.7979 15.4495 26.4099 15.2747 25.9968 15.2268C22.0085 14.9348 18.0041 14.9348 14.0158 15.2268C13.6028 15.2746 13.2147 15.4494 12.9052 15.727C12.5957 16.0046 12.38 16.3714 12.2878 16.7768C11.9145 19.2498 11.9145 21.7648 12.2878 24.2378C12.3804 24.6432 12.5963 25.01 12.906 25.2876C13.2156 25.5652 13.6037 25.7399 14.0168 25.7878C18.0052 26.0785 22.0094 26.0785 25.9978 25.7878C26.4109 25.7399 26.799 25.5652 27.1086 25.2876C27.4183 25.01 27.6342 24.6432 27.7268 24.2378C28.0978 21.7646 28.0975 19.2499 27.7258 16.7768V16.7768ZM18.3258 22.6578V18.2828L22.5548 20.4708L18.3258 22.6578Z" fill="#666666"/>
</svg>
